<svg xmlns="http://www.w3.org/2000/svg" width="738.648" height="821.096"><g><path d="M411.723 469.48c.402-3.216.703-6.48.703-9.797 0-3.316-.3-6.582-.703-9.797l21.25-16.63c1.91-1.506 2.462-4.22 1.206-6.43l-20.096-34.815c-1.256-2.16-3.87-3.064-6.13-2.16l-25.018 10.1c-5.175-3.97-10.852-7.336-16.98-9.898l-3.77-26.627c-.45-2.36-2.51-4.22-5.023-4.22h-40.19c-2.513 0-4.573 1.86-4.975 4.22l-3.768 26.627c-6.13 2.562-11.806 5.877-16.98 9.897l-25.02-10.1c-2.26-.854-4.873 0-6.13 2.16l-20.094 34.816c-1.256 2.16-.704 4.874 1.206 6.43l21.2 16.63c-.402 3.215-.703 6.48-.703 9.797 0 3.316.3 6.58.702 9.796l-21.2 16.628c-1.91 1.508-2.462 4.22-1.206 6.43l20.095 34.817c1.257 2.16 3.87 3.064 6.13 2.16l25.02-10.098c5.174 3.97 10.85 7.335 16.98 9.897l3.768 26.627c.402 2.362 2.462 4.22 4.974 4.22h40.19c2.513 0 4.573-1.858 4.975-4.22l3.768-26.626c6.13-2.562 11.806-5.878 16.98-9.897l25.02 10.098c2.26.854 4.873 0 6.13-2.16l20.094-34.816c1.255-2.16.703-4.874-1.207-6.432l-21.2-16.63zm-71.766 91.422c-19.443 0-35.167-15.724-35.167-35.167 0-19.442 15.724-35.167 35.167-35.167 19.442 0 35.167 15.725 35.167 35.167 0 19.443-15.725 35.167-35.167 35.167z"/><g stroke="#3f51b5" fill="none"><path d="M545.38 410.78c0 218.057-78.736 394.828-175.864 394.828-97.127 0-175.864-176.77-175.864-394.828 0-218.058 78.737-394.83 175.864-394.83 97.128 0 175.865 176.772 175.865 394.83z"/><path d="M281.767 563.515C92.517 455.07-21.74 298.825 26.56 214.53c48.304-84.295 240.878-64.72 430.127 43.725 189.25 108.443 303.508 264.688 255.205 348.984-48.303 84.294-240.876 64.718-430.125-43.725z"/><path d="M281.685 258.217c188.897-109.03 381.398-129.207 429.96-45.068 48.565 84.138-65.198 240.73-254.096 349.76C268.65 671.94 76.15 692.116 27.587 607.978c-48.564-84.14 65.2-240.732 254.097-349.76z"/></g><path d="M488.006 348.393c.255-2.042.447-4.117.447-6.224s-.192-4.182-.447-6.225l13.5-10.565c1.214-.957 1.565-2.68.767-4.085l-12.767-22.12c-.798-1.372-2.458-1.947-3.894-1.372l-15.895 6.415c-3.288-2.52-6.894-4.66-10.788-6.287l-2.395-16.916c-.288-1.5-1.596-2.68-3.192-2.68h-25.535c-1.596 0-2.904 1.18-3.16 2.68l-2.394 16.917c-3.894 1.628-7.5 3.735-10.788 6.288l-15.895-6.415c-1.436-.543-3.095 0-3.893 1.372l-12.768 22.12c-.8 1.372-.447 3.096.765 4.085l13.47 10.565c-.255 2.043-.447 4.118-.447 6.224s.192 4.18.447 6.223l-13.47 10.565c-1.212.958-1.564 2.68-.766 4.086l12.767 22.12c.798 1.372 2.457 1.946 3.894 1.372l15.896-6.416c3.288 2.522 6.894 4.66 10.788 6.288l2.394 16.917c.256 1.5 1.564 2.68 3.16 2.68h25.535c1.596 0 2.904-1.18 3.16-2.68l2.394-16.917c3.894-1.628 7.5-3.735 10.788-6.288l15.895 6.416c1.437.542 3.096 0 3.894-1.373l12.768-22.12c.798-1.372.446-3.095-.766-4.085l-13.47-10.565zm-44.54 82.17c-12.353 0-22.344-9.99-22.344-22.34 0-12.354 9.99-22.344 22.343-22.344 12.352 0 22.343 9.99 22.343 22.342 0 12.352-9.99 22.342-22.343 22.342z" fill="#424242"/></g></svg>