<?xml version="1.0" encoding="UTF-8" standalone="no"?>
<!-- Generator: Adobe Illustrator 15.0.0, SVG Export Plug-In . SVG Version: 6.00 Build 0)  -->

<svg
   xmlns:dc="http://purl.org/dc/elements/1.1/"
   xmlns:cc="http://creativecommons.org/ns#"
   xmlns:rdf="http://www.w3.org/1999/02/22-rdf-syntax-ns#"
   xmlns:svg="http://www.w3.org/2000/svg"
   xmlns="http://www.w3.org/2000/svg"
   xmlns:sodipodi="http://sodipodi.sourceforge.net/DTD/sodipodi-0.dtd"
   xmlns:inkscape="http://www.inkscape.org/namespaces/inkscape"
   version="1.0"
   id="Layer_1"
   x="0px"
   y="0px"
   width="129.39453"
   height="42.702923"
   viewBox="0 0 129.39453 42.702923"
   enable-background="new 0 0 52 53"
   xml:space="preserve"
   inkscape:version="0.91 r13725"
   sodipodi:docname="New-Logo-Black-model-yellow.svg"><metadata
     id="metadata23"><rdf:RDF><cc:Work
         rdf:about=""><dc:format>image/svg+xml</dc:format><dc:type
           rdf:resource="http://purl.org/dc/dcmitype/StillImage" /><dc:title></dc:title></cc:Work></rdf:RDF></metadata><defs
     id="defs21" /><sodipodi:namedview
     pagecolor="#ffffff"
     bordercolor="#666666"
     borderopacity="1"
     objecttolerance="10"
     gridtolerance="10"
     guidetolerance="10"
     inkscape:pageopacity="0"
     inkscape:pageshadow="2"
     inkscape:window-width="640"
     inkscape:window-height="480"
     id="namedview19"
     showgrid="false"
     fit-margin-top="0"
     fit-margin-left="0"
     fit-margin-right="0"
     fit-margin-bottom="0"
     inkscape:zoom="3.2783019"
     inkscape:cx="59.329229"
     inkscape:cy="34.596515"
     inkscape:current-layer="Layer_1"
     inkscape:snap-text-baseline="false" /><path
     style="opacity:1;fill:#ffd600;fill-opacity:1;fill-rule:nonzero;stroke:none;stroke-width:1.25;stroke-linecap:round;stroke-linejoin:round;stroke-miterlimit:4;stroke-dasharray:none;stroke-opacity:1"
     id="path4188"
     sodipodi:type="arc"
     sodipodi:cx="54.153954"
     sodipodi:cy="25.485615"
     sodipodi:rx="16.80942"
     sodipodi:ry="17.217308"
     sodipodi:start="6.0686547"
     sodipodi:end="6.0481593"
     sodipodi:open="true"
     d="M 70.578041,21.820242 A 16.80942,17.217308 0 0 1 57.816598,42.289239 16.80942,17.217308 0 0 1 37.767399,29.323185 16.80942,17.217308 0 0 1 50.323385,8.7213166 16.80942,17.217308 0 0 1 70.501253,21.47625" /><g
     transform="matrix(1.046123,0,0,1.0008135,-57.683166,-0.17111527)"
     id="g4172"
     style="fill:#000000"><g
       id="g4174"
       transform="matrix(1.13322,0,0,1.13322,77.534561,-3.0516654)"
       style="fill:#000000"><path
         style="fill:#000000"
         inkscape:connector-curvature="0"
         id="path4176"
         d="m 27.882,22.232 c -0.161,0 -0.325,-0.039 -0.478,-0.123 -0.911,-0.496 -1.922,-0.506 -2.843,-0.02 -0.467,0.246 -1.042,0.09 -1.318,-0.357 l -4.089,-6.246 c -0.141,-0.227 -0.185,-0.5 -0.122,-0.76 0.062,-0.26 0.226,-0.482 0.454,-0.621 3.968,-2.406 9.052,-2.406 13.017,0 0.229,0.139 0.392,0.361 0.454,0.621 0.062,0.26 0.018,0.533 -0.122,0.76 l -4.103,6.271 c -0.187,0.305 -0.514,0.475 -0.85,0.475 z m -1.918,-2.391 c 0.519,0 1.027,0.086 1.521,0.256 l 3.094,-4.883 c -2.877,-1.467 -6.288,-1.467 -9.167,0 l 3.085,4.865 c 0.478,-0.158 0.968,-0.238 1.467,-0.238 z" /></g><g
       id="g4178"
       transform="matrix(1.13322,0,0,1.13322,77.534561,-3.0516654)"
       style="fill:#000000"><path
         style="fill:#000000"
         inkscape:connector-curvature="0"
         id="path4180"
         d="m 32.055,36.227 c -0.074,0 -0.15,-0.008 -0.225,-0.025 -0.26,-0.059 -0.484,-0.221 -0.625,-0.443 l -4.062,-6.526 c -0.146,-0.231 -0.188,-0.517 -0.119,-0.781 0.069,-0.267 0.246,-0.491 0.486,-0.623 0.926,-0.508 1.498,-1.441 1.53,-2.5 0.019,-0.539 0.46,-0.969 1,-0.969 l 6.914,0 c 0.553,0 1,0.446 1,1 0,5.14 -1.604,8.344 -5.367,10.717 -0.16,0.097 -0.346,0.15 -0.532,0.15 z m -2.696,-7.35 3.002,4.936 c 2.354,-1.799 3.408,-4.051 3.57,-7.604 l -5.004,0 c -0.236,1.034 -0.786,1.973 -1.568,2.668 z" /></g><g
       id="g4182"
       transform="matrix(1.13322,0,0,1.13322,77.534561,-3.0516654)"
       style="fill:#000000"><path
         style="fill:#000000"
         inkscape:connector-curvature="0"
         id="path4184"
         d="m 19.885,36.258 c -0.188,0 -0.375,-0.053 -0.537,-0.156 -3.746,-2.381 -5.344,-5.596 -5.344,-10.746 0,-0.553 0.448,-1 1,-1 l 6.835,0 c 0.541,0 0.983,0.43 1,0.969 0.033,1.064 0.627,2.033 1.553,2.529 0.243,0.131 0.422,0.355 0.493,0.621 0.071,0.268 0.03,0.551 -0.115,0.785 l -4.035,6.522 c -0.141,0.229 -0.367,0.392 -0.627,0.449 -0.073,0.019 -0.148,0.027 -0.223,0.027 z M 15.871,26.153 c 0.165,3.588 1.243,5.867 3.646,7.685 l 3.054,-4.953 c -0.82,-0.707 -1.398,-1.666 -1.643,-2.73 l -5.057,-0.002 0,0 z" /></g><path
       style="opacity:1;fill:#000000;fill-opacity:1;fill-rule:nonzero;stroke:none;stroke-width:1.25;stroke-linecap:round;stroke-linejoin:round;stroke-miterlimit:4;stroke-dasharray:none;stroke-opacity:1"
       id="path4186"
       sodipodi:type="arc"
       sodipodi:cx="106.97231"
       sodipodi:cy="25.291162"
       sodipodi:rx="2.039928"
       sodipodi:ry="1.9446043"
       sodipodi:start="6.0892369"
       sodipodi:end="6.0481593"
       sodipodi:open="true"
       d="m 108.97399,24.91637 a 2.039928,1.9446043 0 0 1 -1.58798,2.278988 2.039928,1.9446043 0 0 1 -2.40688,-1.490293 2.039928,1.9446043 0 0 1 1.53855,-2.309597 2.039928,1.9446043 0 0 1 2.43848,1.442858" /></g><path
     inkscape:connector-curvature="0"
     id="path4171"
     style="font-style:normal;font-variant:normal;font-weight:300;font-stretch:normal;font-size:50px;line-height:100%;font-family:Roboto;-inkscape-font-specification:'Roboto, Light';text-align:start;letter-spacing:0px;word-spacing:0px;writing-mode:lr-tb;text-anchor:start;fill:#000000;fill-opacity:1;stroke:none;stroke-width:1px;stroke-linecap:butt;stroke-linejoin:miter;stroke-opacity:1"
     d="m 2.807614,11.083984 0.09766,4.296875 q 0.659179,-1.074218 1.513671,-1.953125 0.878907,-0.90332 1.953125,-1.513672 1.074219,-0.634765 2.34375,-0.976562 1.269532,-0.341797 2.734375,-0.341797 2.905274,0 4.980469,1.220703 2.075196,1.220703 2.954102,3.90625 0.634765,-1.098633 1.513672,-2.026367 0.90332,-0.952148 2.026367,-1.635742 1.147461,-0.683594 2.514648,-1.074219 1.367188,-0.390625 2.954102,-0.390625 2.050781,0 3.662109,0.561523 1.611328,0.53711 2.709961,1.733399 1.123047,1.171875 1.708985,3.00293 0.585937,1.831054 0.585937,4.394531 l 0,17.211914 -2.929687,0 0,-17.236328 q 0,-2.09961 -0.463868,-3.466797 -0.463867,-1.391602 -1.318359,-2.197266 -0.854492,-0.830078 -2.050781,-1.147461 -1.171875,-0.317382 -2.587891,-0.317382 -1.855469,0.02441 -3.24707,0.683593 -1.391602,0.634766 -2.368164,1.635742 -0.952149,0.976563 -1.489258,2.197266 -0.537109,1.220703 -0.634766,2.368164 l 0,17.480469 -2.929687,0 0,-17.456055 q 0,-1.977539 -0.463867,-3.295898 -0.463868,-1.31836 -1.31836,-2.124024 -0.854492,-0.805664 -2.050781,-1.147461 -1.171875,-0.341796 -2.612305,-0.341796 -1.660156,0 -2.929687,0.537109 Q 6.396485,14.18457 5.444336,15.063476 4.516602,15.942383 3.90625,17.06543 3.295899,18.188476 2.929688,19.384766 L 2.929688,37.5 0,37.5 0,11.083984 l 2.807617,0 z" /><path
     inkscape:connector-curvature="0"
     id="path4175"
     style="font-style:normal;font-variant:normal;font-weight:300;font-stretch:normal;font-size:50px;line-height:100%;font-family:Roboto;-inkscape-font-specification:'Roboto, Light';text-align:start;letter-spacing:0px;word-spacing:0px;writing-mode:lr-tb;text-anchor:start;fill:#000000;fill-opacity:1;stroke:none;stroke-width:1px;stroke-linecap:butt;stroke-linejoin:miter;stroke-opacity:1"
     d="m 71.337892,24.047851 q 0,-3.076171 0.708,-5.541992 0.70801,-2.490234 2.02637,-4.248047 1.31836,-1.757812 3.19824,-2.709961 1.9043,-0.952148 4.27246,-0.952148 2.80762,0 4.80957,1.123047 2.02637,1.123047 3.34473,3.100586 l 0,-14.819336 2.90527,0 0,37.5 -2.73437,0 -0.12207,-3.515625 q -1.31836,1.879883 -3.36914,2.954101 -2.02637,1.049805 -4.88281,1.049805 -2.34375,0 -4.22364,-0.976562 -1.87988,-1.000977 -3.19824,-2.758789 -1.31836,-1.782227 -2.02637,-4.248047 -0.708,-2.465821 -0.708,-5.444336 l 0,-0.512696 z m 2.9541,0.512696 q 0,2.319336 0.46386,4.321289 0.46387,1.977539 1.41602,3.442383 0.95215,1.464843 2.39258,2.294922 1.46484,0.830078 3.4668,0.830078 1.48925,0 2.68554,-0.341797 1.22071,-0.366211 2.14844,-1.000977 0.95215,-0.634765 1.63574,-1.513672 0.70801,-0.878906 1.19629,-1.904297 l 0,-12.402343 q -0.43945,-1.000977 -1.07422,-1.928711 -0.63476,-0.927735 -1.5625,-1.635742 -0.92773,-0.732422 -2.14844,-1.147461 -1.2207,-0.439453 -2.83203,-0.439453 -2.02636,0 -3.49121,0.854492 -1.46484,0.830078 -2.41699,2.294922 -0.95215,1.464843 -1.41602,3.466796 -0.46386,2.001954 -0.46386,4.296875 l 0,0.512696 z" /><path
     inkscape:connector-curvature="0"
     id="path4177"
     style="font-style:normal;font-variant:normal;font-weight:300;font-stretch:normal;font-size:50px;line-height:100%;font-family:Roboto;-inkscape-font-specification:'Roboto, Light';text-align:start;letter-spacing:0px;word-spacing:0px;writing-mode:lr-tb;text-anchor:start;fill:#000000;fill-opacity:1;stroke:none;stroke-width:1px;stroke-linecap:butt;stroke-linejoin:miter;stroke-opacity:1"
     d="m 110.57128,37.988281 q -2.58789,0 -4.76074,-0.952148 -2.17285,-0.976563 -3.75976,-2.685547 -1.5625,-1.733399 -2.441408,-4.101563 -0.87891,-2.368164 -0.87891,-5.200195 l 0,-1.049805 q 0,-3.051757 0.90332,-5.517578 0.927738,-2.490234 2.490238,-4.223633 1.5625,-1.757812 3.58887,-2.709961 2.05078,-0.952148 4.32128,-0.952148 2.51465,0 4.46778,0.90332 1.95312,0.903321 3.27148,2.514649 1.34278,1.611328 2.02637,3.833008 0.68359,2.221679 0.68359,4.858398 l 0,1.782227 -18.84765,0 0,0.561523 q 0,2.172852 0.65918,4.101563 0.65918,1.904296 1.85547,3.320312 1.19628,1.416016 2.85644,2.246094 1.66016,0.805664 3.68652,0.805664 2.34375,0 4.12598,-0.854492 1.80664,-0.854493 3.27149,-2.734375 l 1.83105,1.391601 q -0.65918,0.952149 -1.53809,1.806641 -0.85449,0.854492 -2.00195,1.489258 -1.14746,0.634765 -2.58789,1.000976 -1.44043,0.366211 -3.22266,0.366211 z m -0.53711,-24.902344 q -1.66015,0 -3.07617,0.634766 -1.41601,0.634766 -2.51465,1.806641 -1.07421,1.171875 -1.78222,2.832031 -0.6836,1.635742 -0.92774,3.637695 l 15.84473,0 0,-0.317383 q -0.0488,-1.660156 -0.53711,-3.198242 -0.48828,-1.5625 -1.44043,-2.758789 -0.92773,-1.196289 -2.31933,-1.904297 -1.39161,-0.732422 -3.24708,-0.732422 z" /><path
     inkscape:connector-curvature="0"
     id="path4179"
     style="font-style:normal;font-variant:normal;font-weight:300;font-stretch:normal;font-size:50px;line-height:100%;font-family:Roboto;-inkscape-font-specification:'Roboto, Light';text-align:start;letter-spacing:0px;word-spacing:0px;writing-mode:lr-tb;text-anchor:start;fill:#000000;fill-opacity:1;stroke:none;stroke-width:1px;stroke-linecap:butt;stroke-linejoin:miter;stroke-opacity:1"
     d="m 129.39453,37.5 -2.92969,0 0,-37.5 2.92969,0 0,37.5 z" /></svg>