<svg xmlns="http://www.w3.org/2000/svg" width="738.648" height="821.096"><g fill="#1a237e"><path d="M411.723 469.48c.402-3.216.703-6.48.703-9.797 0-3.316-.3-6.582-.703-9.797l21.25-16.63c1.91-1.506 2.462-4.22 1.206-6.43l-20.096-34.815c-1.256-2.16-3.87-3.064-6.13-2.16l-25.018 10.1c-5.175-3.97-10.852-7.336-16.98-9.898l-3.77-26.627c-.45-2.36-2.51-4.22-5.023-4.22h-40.19c-2.513 0-4.573 1.86-4.975 4.22l-3.768 26.627c-6.13 2.562-11.806 5.877-16.98 9.897l-25.02-10.1c-2.26-.854-4.873 0-6.13 2.16l-20.094 34.816c-1.256 2.16-.704 4.874 1.206 6.43l21.2 16.63c-.402 3.215-.703 6.48-.703 9.797 0 3.316.3 6.58.702 9.796l-21.2 16.628c-1.91 1.508-2.462 4.22-1.206 6.43l20.095 34.817c1.257 2.16 3.87 3.064 6.13 2.16l25.02-10.098c5.174 3.97 10.85 7.335 16.98 9.897l3.768 26.627c.402 2.362 2.462 4.22 4.974 4.22h40.19c2.513 0 4.573-1.858 4.975-4.22l3.768-26.626c6.13-2.562 11.806-5.878 16.98-9.897l25.02 10.098c2.26.854 4.873 0 6.13-2.16l20.094-34.816c1.255-2.16.703-4.874-1.207-6.432l-21.2-16.63zm-71.766 91.422c-19.443 0-35.167-15.724-35.167-35.167 0-19.442 15.724-35.167 35.167-35.167 19.442 0 35.167 15.725 35.167 35.167 0 19.443-15.725 35.167-35.167 35.167z"/><g stroke="none" color="#000" font-family="sans-serif" stroke-width="17"><path style="line-height:normal;text-indent:0;text-align:start;text-decoration-line:none;text-decoration-style:solid;text-decoration-color:#000000;text-transform:none;block-progression:tb;white-space:normal;isolation:auto;mix-blend-mode:normal;solid-color:#000000;solid-opacity:1" d="M369.516.125c-29.083 0-56.225 13.416-79.353 35.378-23.128 21.962-42.94 52.56-59.46 89.652-33.043 74.183-52.878 174.69-52.878 285.624 0 110.933 19.835 211.444 52.877 285.627 16.522 37.092 36.333 67.687 59.46 89.65 23.13 21.96 50.27 35.377 79.354 35.377 29.083 0 56.225-13.416 79.353-35.378 23.127-21.962 42.938-52.557 59.46-89.65 33.042-74.182 52.877-174.693 52.877-285.627 0-110.935-19.835-211.442-52.877-285.625-16.522-37.092-36.333-67.69-59.46-89.652C425.74 13.54 398.6.125 369.515.125zm1.42 296.145c19.48 0 38.6 8.682 57.554 26.68 18.952 17.996 37.04 45.216 52.343 79.574 30.608 68.717 50.14 165.623 50.14 272.747 0 107.125-19.532 204.03-50.14 272.748-15.304 34.358-33.39 61.58-52.343 79.578-18.953 17.997-38.074 26.676-57.555 26.676-19.48 0-38.602-8.68-57.555-26.676-18.952-17.997-37.04-45.22-52.343-79.578-30.608-68.717-50.14-165.623-50.14-272.747 0-107.123 19.532-204.03 50.14-272.746 15.304-34.358 33.39-61.578 52.343-79.575 18.953-17.998 38.074-26.68 57.555-26.68z" overflow="visible" enable-background="accumulate"/><path style="line-height:normal;text-indent:0;text-align:start;text-decoration-line:none;text-decoration-style:solid;text-decoration-color:#000000;text-transform:none;block-progression:tb;white-space:normal;isolation:auto;mix-blend-mode:normal;solid-color:#000000;solid-opacity:1" d="M725.81 614.968c14.46-25.233 16.316-55.453 8.76-86.44-7.554-30.986-24.25-63.39-48.218-96.166-47.933-65.554-125.272-132.738-221.52-187.898-96.25-55.16-193.317-87.926-274.11-96.144-40.396-4.108-76.792-2.133-107.346 7.014-30.555 9.146-55.69 26.025-70.15 51.257-14.462 25.234-16.318 55.454-8.763 86.44 7.555 30.987 24.25 63.388 48.216 96.165 47.932 65.555 125.274 132.74 221.523 187.9 96.248 55.16 193.313 87.925 274.106 96.142 40.395 4.11 76.794 2.135 107.348-7.01 30.555-9.147 55.69-26.026 70.15-51.26zm-190.99-35.885c-9.685 16.902-26.726 29.175-51.764 36.67-25.038 7.495-57.648 9.653-95.067 5.848-74.84-7.61-168.63-38.85-261.572-92.114-92.943-53.265-167.31-118.396-211.71-179.12-22.2-30.36-36.827-59.59-43.018-84.982-6.19-25.392-4.213-46.297 5.474-63.2 9.686-16.902 26.723-29.176 51.76-36.67 25.04-7.496 57.653-9.653 95.072-5.847 74.84 7.612 168.628 38.85 261.57 92.115 92.944 53.265 167.31 118.395 211.71 179.12 22.202 30.36 36.825 59.588 43.016 84.98 6.19 25.392 4.216 46.3-5.47 63.2z" overflow="visible" enable-background="accumulate"/><path style="line-height:normal;text-indent:0;text-align:start;text-decoration-line:none;text-decoration-style:solid;text-decoration-color:#000000;text-transform:none;block-progression:tb;white-space:normal;isolation:auto;mix-blend-mode:normal;solid-color:#000000;solid-opacity:1" d="M13.856 616.068c14.538 25.188 39.726 41.99 70.31 51.04 30.582 9.053 66.986 10.914 107.37 6.68 80.767-8.466 177.73-41.53 273.807-96.987 96.078-55.456 173.213-122.88 220.943-188.582 23.866-32.85 40.46-65.304 47.92-96.314 7.458-31.01 5.51-61.223-9.03-86.41-14.538-25.19-39.726-41.99-70.31-51.042-30.58-9.052-66.983-10.915-107.366-6.682-80.767 8.467-177.733 41.534-273.81 96.99-96.08 55.456-173.21 122.88-220.94 188.58-23.866 32.852-40.464 65.307-47.923 96.316-7.46 31.01-5.51 61.224 9.03 86.412zm193.484-36.48c-9.738-16.87-11.778-37.772-5.665-63.183 6.112-25.41 20.645-54.683 42.75-85.113 44.215-60.86 118.38-126.22 211.157-179.772 92.778-53.552 186.47-85.08 261.286-92.922 37.407-3.922 70.027-1.866 95.088 5.552 25.06 7.417 42.136 19.64 51.875 36.512 9.74 16.872 11.782 37.77 5.67 63.182-6.113 25.41-20.65 54.685-42.755 85.115-44.214 60.86-118.378 126.22-211.156 179.77-92.78 53.552-186.472 85.08-261.287 92.923-37.407 3.92-70.024 1.864-95.085-5.554-25.06-7.418-42.14-19.64-51.878-36.51z" overflow="visible" enable-background="accumulate"/></g><path d="M488.006 348.393c.255-2.042.447-4.117.447-6.224s-.192-4.182-.447-6.225l13.5-10.565c1.214-.957 1.565-2.68.767-4.085l-12.767-22.12c-.798-1.372-2.458-1.947-3.894-1.372l-15.895 6.415c-3.288-2.52-6.894-4.66-10.788-6.287l-2.395-16.916c-.288-1.5-1.596-2.68-3.192-2.68h-25.535c-1.596 0-2.904 1.18-3.16 2.68l-2.394 16.917c-3.894 1.628-7.5 3.735-10.788 6.288l-15.895-6.415c-1.436-.543-3.095 0-3.893 1.372l-12.768 22.12c-.8 1.372-.447 3.096.765 4.085l13.47 10.565c-.255 2.043-.447 4.118-.447 6.224s.192 4.18.447 6.223l-13.47 10.565c-1.212.958-1.564 2.68-.766 4.086l12.767 22.12c.798 1.372 2.457 1.946 3.894 1.372l15.896-6.416c3.288 2.522 6.894 4.66 10.788 6.288l2.394 16.917c.256 1.5 1.564 2.68 3.16 2.68h25.535c1.596 0 2.904-1.18 3.16-2.68l2.394-16.917c3.894-1.628 7.5-3.735 10.788-6.288l15.895 6.416c1.437.542 3.096 0 3.894-1.373l12.768-22.12c.798-1.372.446-3.095-.766-4.085l-13.47-10.565zm-44.54 82.17c-12.353 0-22.344-9.99-22.344-22.34 0-12.354 9.99-22.344 22.343-22.344 12.352 0 22.343 9.99 22.343 22.342 0 12.352-9.99 22.342-22.343 22.342z"/></g></svg>