<?xml version="1.0" encoding="UTF-8" standalone="no"?>
<!-- Created with Inkscape (http://www.inkscape.org/) -->

<svg
   xmlns:dc="http://purl.org/dc/elements/1.1/"
   xmlns:cc="http://creativecommons.org/ns#"
   xmlns:rdf="http://www.w3.org/1999/02/22-rdf-syntax-ns#"
   xmlns:svg="http://www.w3.org/2000/svg"
   xmlns="http://www.w3.org/2000/svg"
   xmlns:sodipodi="http://sodipodi.sourceforge.net/DTD/sodipodi-0.dtd"
   xmlns:inkscape="http://www.inkscape.org/namespaces/inkscape"
   width="738.64801"
   height="821.09631"
   id="svg2986"
   version="1.1"
   inkscape:version="0.48.5 r10040"
   sodipodi:docname="radioactive-logo.svg">
  <defs
     id="defs2988" />
  <sodipodi:namedview
     id="base"
     pagecolor="#ffffff"
     bordercolor="#666666"
     borderopacity="1.0"
     inkscape:pageopacity="0.0"
     inkscape:pageshadow="2"
     inkscape:zoom="0.7"
     inkscape:cx="306.52922"
     inkscape:cy="482.15933"
     inkscape:document-units="px"
     inkscape:current-layer="layer3"
     showgrid="false"
     showguides="true"
     inkscape:guide-bbox="true"
     inkscape:window-width="2324"
     inkscape:window-height="994"
     inkscape:window-x="0"
     inkscape:window-y="0"
     inkscape:window-maximized="0"
     fit-margin-top="0"
     fit-margin-left="0"
     fit-margin-right="0"
     fit-margin-bottom="0" />
  <metadata
     id="metadata2991">
    <rdf:RDF>
      <cc:Work
         rdf:about="">
        <dc:format>image/svg+xml</dc:format>
        <dc:type
           rdf:resource="http://purl.org/dc/dcmitype/StillImage" />
        <dc:title></dc:title>
      </cc:Work>
    </rdf:RDF>
  </metadata>
  <g
     inkscape:groupmode="layer"
     id="layer3"
     inkscape:label="Layer"
     transform="translate(-2.8894244,-66.052343)"
     style="display:inline">
    <path
       inkscape:connector-curvature="0"
       d="m 414.61207,535.53169 c 0.40189,-3.2153 0.70335,-6.48084 0.70335,-9.7966 0,-3.31578 -0.30146,-6.58131 -0.70335,-9.79659 l 21.25107,-16.62912 c 1.9091,-1.50717 2.46173,-4.22006 1.20575,-6.43059 l -20.09558,-34.81561 c -1.25598,-2.16029 -3.86841,-3.06459 -6.12916,-2.16029 l -25.01904,10.09804 c -5.1746,-3.96888 -10.8516,-7.33489 -16.98077,-9.89708 l -3.76792,-26.62664 c -0.45216,-2.36124 -2.51195,-4.2201 -5.0239,-4.2201 h -40.19117 c -2.51195,0 -4.57176,1.85886 -4.97366,4.2201 l -3.76793,26.62664 c -6.12916,2.56219 -11.80616,5.87795 -16.98078,9.89708 l -25.019,-10.09804 c -2.26075,-0.85406 -4.8732,0 -6.12917,2.16029 l -20.09559,34.81561 c -1.25598,2.16029 -0.70335,4.87318 1.20573,6.43059 l 21.20085,16.62912 c -0.40191,3.21528 -0.70333,6.48081 -0.70333,9.79659 0,3.31576 0.30142,6.5813 0.70333,9.7966 l -21.20085,16.62912 c -1.90908,1.50716 -2.46171,4.22006 -1.20573,6.43057 l 20.09559,34.81561 c 1.25597,2.16029 3.86842,3.06459 6.12917,2.16029 l 25.019,-10.09804 c 5.17462,3.96888 10.85162,7.33489 16.98078,9.89709 l 3.76793,26.62665 c 0.4019,2.36122 2.46171,4.22008 4.97366,4.22008 h 40.19117 c 2.51195,0 4.57174,-1.85886 4.97365,-4.22008 l 3.76792,-26.62665 c 6.12918,-2.5622 11.80618,-5.87796 16.9808,-9.89709 l 25.01901,10.09804 c 2.26076,0.85404 4.87319,0 6.12916,-2.16029 l 20.09559,-34.81561 c 1.25598,-2.16027 0.70335,-4.87318 -1.20573,-6.43057 l -21.20085,-16.62912 z m -74.65514,25.37069 c -19.44248,0 -35.16728,-15.72481 -35.16728,-35.16729 0,-19.4425 15.7248,-35.16728 35.16728,-35.16728 19.44249,0 35.16729,15.72478 35.16729,35.16728 0,19.44248 -15.7248,35.16729 -35.16729,35.16729 z"
       id="path3939"
       style="fill:#000000;fill-opacity:1"
       inkscape:export-filename="/Users/kenhaigh/Downloads/path3981.png"
       inkscape:export-xdpi="19.049999"
       inkscape:export-ydpi="19.049999" />
    <g
       id="g3842"
       style="stroke:#3f51b5"
       inkscape:export-filename="/Users/kenhaigh/Downloads/path3981.png"
       inkscape:export-xdpi="19.049999"
       inkscape:export-ydpi="19.049999"
       transform="matrix(1.8615007,0,0,1.8615007,-318.27567,-426.53843)">
      <path
         transform="translate(0.71428572,18.182746)"
         d="m 464.67018,466.97879 c 0,117.10943 -42.28637,212.04538 -94.44926,212.04538 -52.16289,0 -94.44927,-94.93595 -94.44927,-212.04538 0,-117.10943 42.28638,-212.04538 94.44927,-212.04538 52.16289,0 94.44926,94.93595 94.44926,212.04538 z"
         sodipodi:ry="212.04538"
         sodipodi:rx="94.449265"
         sodipodi:cy="466.97879"
         sodipodi:cx="370.22092"
         id="path3832"
         style="fill:none;stroke:#3f51b5;stroke-width:17;stroke-miterlimit:4;stroke-opacity:1;stroke-dasharray:none"
         sodipodi:type="arc" />
      <path
         sodipodi:type="arc"
         style="fill:none;stroke:#3f51b5;stroke-width:17;stroke-miterlimit:4;stroke-opacity:1;stroke-dasharray:none"
         id="path3838"
         sodipodi:cx="370.22092"
         sodipodi:cy="466.97879"
         sodipodi:rx="94.449265"
         sodipodi:ry="212.04538"
         d="m 464.67018,466.97879 c 0,117.10943 -42.28637,212.04538 -94.44926,212.04538 -52.16289,0 -94.44927,-94.93595 -94.44927,-212.04538 0,-117.10943 42.28638,-212.04538 94.44927,-212.04538 52.16289,0 94.44926,94.93595 94.44926,212.04538 z"
         transform="matrix(-0.49722675,0.86762063,-0.86762063,-0.49722675,960.17937,396.14458)" />
      <path
         transform="matrix(-0.4999036,-0.86608105,0.86608105,-0.4999036,151.56848,1039.2472)"
         d="m 464.67018,466.97879 c 0,117.10943 -42.28637,212.04538 -94.44926,212.04538 -52.16289,0 -94.44927,-94.93595 -94.44927,-212.04538 0,-117.10943 42.28638,-212.04538 94.44927,-212.04538 52.16289,0 94.44926,94.93595 94.44926,212.04538 z"
         sodipodi:ry="212.04538"
         sodipodi:rx="94.449265"
         sodipodi:cy="466.97879"
         sodipodi:cx="370.22092"
         id="path3840"
         style="fill:none;stroke:#3f51b5;stroke-width:17;stroke-miterlimit:4;stroke-opacity:1;stroke-dasharray:none"
         sodipodi:type="arc" />
    </g>
    <path
       style="fill:#424242;fill-opacity:1"
       id="path3981"
       d="m 490.89547,414.44563 c 0.25532,-2.04276 0.44685,-4.11744 0.44685,-6.22404 0,-2.10662 -0.19153,-4.1813 -0.44685,-6.22406 l 13.50141,-10.56495 c 1.2129,-0.95755 1.564,-2.68113 0.76603,-4.08553 L 492.39562,365.2277 c -0.79797,-1.37249 -2.45772,-1.94702 -3.89404,-1.37249 l -15.89528,6.41557 c -3.28758,-2.52153 -6.89433,-4.66006 -10.78836,-6.2879 l -2.39389,-16.91667 c -0.28725,-1.50015 -1.5959,-2.68114 -3.19183,-2.68114 h -25.53459 c -1.59592,0 -2.90456,1.18099 -3.1599,2.68114 l -2.39387,16.91667 c -3.89404,1.62784 -7.50079,3.73445 -10.78838,6.2879 l -15.89528,-6.41557 c -1.43634,-0.5426 -3.09607,0 -3.89402,1.37249 l -12.76731,22.11935 c -0.79797,1.37247 -0.44685,3.09607 0.76603,4.08553 l 13.4695,10.56495 c -0.25534,2.04276 -0.44685,4.11744 -0.44685,6.22406 0,2.1066 0.19151,4.18128 0.44685,6.22404 l -13.4695,10.56496 c -1.21288,0.95754 -1.564,2.68112 -0.76603,4.08553 l 12.76731,22.11934 c 0.79795,1.37248 2.45768,1.94702 3.89402,1.37248 l 15.89528,-6.41556 c 3.28759,2.52155 6.89434,4.66008 10.78838,6.2879 l 2.39387,16.91667 c 0.25534,1.50016 1.56398,2.68114 3.1599,2.68114 h 25.53459 c 1.59593,0 2.90458,-1.18098 3.15992,-2.68114 l 2.39387,-16.91667 c 3.89402,-1.62782 7.50081,-3.73445 10.78837,-6.2879 l 15.8953,6.41556 c 1.43631,0.54261 3.09606,0 3.89401,-1.37248 L 505.131,429.09612 c 0.79795,-1.37248 0.44685,-3.09606 -0.76603,-4.08553 l -13.4695,-10.56496 z m -47.43053,16.11871 c -12.35236,0 -22.34278,-9.99041 -22.34278,-22.34275 0,-12.35238 9.99042,-22.34279 22.34278,-22.34279 12.35236,0 22.34279,9.99041 22.34279,22.34279 0,12.35234 -9.99043,22.34275 -22.34279,22.34275 z"
       inkscape:connector-curvature="0"
       inkscape:export-xdpi="19.049999"
       inkscape:export-ydpi="19.049999" />
  </g>
</svg>
