<?xml version="1.0" encoding="UTF-8" standalone="no"?>
<!-- Created with Inkscape (http://www.inkscape.org/) -->

<svg
   xmlns:dc="http://purl.org/dc/elements/1.1/"
   xmlns:cc="http://creativecommons.org/ns#"
   xmlns:rdf="http://www.w3.org/1999/02/22-rdf-syntax-ns#"
   xmlns:svg="http://www.w3.org/2000/svg"
   xmlns="http://www.w3.org/2000/svg"
   xmlns:sodipodi="http://sodipodi.sourceforge.net/DTD/sodipodi-0.dtd"
   xmlns:inkscape="http://www.inkscape.org/namespaces/inkscape"
   width="738.64801"
   height="821.09631"
   id="svg2986"
   version="1.1"
   inkscape:version="0.91 r13725"
   sodipodi:docname="radioactive-logo-darkblue.svg">
  <defs
     id="defs2988" />
  <sodipodi:namedview
     id="base"
     pagecolor="#ffffff"
     bordercolor="#666666"
     borderopacity="1.0"
     inkscape:pageopacity="0.0"
     inkscape:pageshadow="2"
     inkscape:zoom="0.7"
     inkscape:cx="99.386363"
     inkscape:cy="482.15933"
     inkscape:document-units="px"
     inkscape:current-layer="layer3"
     showgrid="false"
     showguides="true"
     inkscape:guide-bbox="true"
     inkscape:window-width="2324"
     inkscape:window-height="994"
     inkscape:window-x="0"
     inkscape:window-y="0"
     inkscape:window-maximized="0"
     fit-margin-top="0"
     fit-margin-left="0"
     fit-margin-right="0"
     fit-margin-bottom="0" />
  <metadata
     id="metadata2991">
    <rdf:RDF>
      <cc:Work
         rdf:about="">
        <dc:format>image/svg+xml</dc:format>
        <dc:type
           rdf:resource="http://purl.org/dc/dcmitype/StillImage" />
        <dc:title></dc:title>
      </cc:Work>
    </rdf:RDF>
  </metadata>
  <g
     inkscape:groupmode="layer"
     id="layer3"
     inkscape:label="Layer"
     transform="translate(-2.8894244,-66.052343)"
     style="display:inline">
    <path
       inkscape:connector-curvature="0"
       d="m 414.61207,535.53169 c 0.40189,-3.2153 0.70335,-6.48084 0.70335,-9.7966 0,-3.31578 -0.30146,-6.58131 -0.70335,-9.79659 l 21.25107,-16.62912 c 1.9091,-1.50717 2.46173,-4.22006 1.20575,-6.43059 l -20.09558,-34.81561 c -1.25598,-2.16029 -3.86841,-3.06459 -6.12916,-2.16029 l -25.01904,10.09804 c -5.1746,-3.96888 -10.8516,-7.33489 -16.98077,-9.89708 l -3.76792,-26.62664 c -0.45216,-2.36124 -2.51195,-4.2201 -5.0239,-4.2201 h -40.19117 c -2.51195,0 -4.57176,1.85886 -4.97366,4.2201 l -3.76793,26.62664 c -6.12916,2.56219 -11.80616,5.87795 -16.98078,9.89708 l -25.019,-10.09804 c -2.26075,-0.85406 -4.8732,0 -6.12917,2.16029 l -20.09559,34.81561 c -1.25598,2.16029 -0.70335,4.87318 1.20573,6.43059 l 21.20085,16.62912 c -0.40191,3.21528 -0.70333,6.48081 -0.70333,9.79659 0,3.31576 0.30142,6.5813 0.70333,9.7966 l -21.20085,16.62912 c -1.90908,1.50716 -2.46171,4.22006 -1.20573,6.43057 l 20.09559,34.81561 c 1.25597,2.16029 3.86842,3.06459 6.12917,2.16029 l 25.019,-10.09804 c 5.17462,3.96888 10.85162,7.33489 16.98078,9.89709 l 3.76793,26.62665 c 0.4019,2.36122 2.46171,4.22008 4.97366,4.22008 h 40.19117 c 2.51195,0 4.57174,-1.85886 4.97365,-4.22008 l 3.76792,-26.62665 c 6.12918,-2.5622 11.80618,-5.87796 16.9808,-9.89709 l 25.01901,10.09804 c 2.26076,0.85404 4.87319,0 6.12916,-2.16029 l 20.09559,-34.81561 c 1.25598,-2.16027 0.70335,-4.87318 -1.20573,-6.43057 l -21.20085,-16.62912 z m -74.65514,25.37069 c -19.44248,0 -35.16728,-15.72481 -35.16728,-35.16729 0,-19.4425 15.7248,-35.16728 35.16728,-35.16728 19.44249,0 35.16729,15.72478 35.16729,35.16728 0,19.44248 -15.7248,35.16729 -35.16729,35.16729 z"
       id="path3939"
       style="fill:#1a237e;fill-opacity:1"
       inkscape:export-filename="/Users/kenhaigh/Downloads/path3981.png"
       inkscape:export-xdpi="19.049999"
       inkscape:export-ydpi="19.049999" />
    <g
       id="g3842"
       style="stroke:#3f51b5"
       inkscape:export-filename="/Users/kenhaigh/Downloads/path3981.png"
       inkscape:export-xdpi="19.049999"
       inkscape:export-ydpi="19.049999"
       transform="matrix(1.8615007,0,0,1.8615007,-318.27567,-426.53843)">
      <path
         style="color:#000000;font-style:normal;font-variant:normal;font-weight:normal;font-stretch:normal;font-size:medium;line-height:normal;font-family:sans-serif;text-indent:0;text-align:start;text-decoration:none;text-decoration-line:none;text-decoration-style:solid;text-decoration-color:#000000;letter-spacing:normal;word-spacing:normal;text-transform:none;direction:ltr;block-progression:tb;writing-mode:lr-tb;baseline-shift:baseline;text-anchor:start;white-space:normal;clip-rule:nonzero;display:inline;overflow:visible;visibility:visible;opacity:1;isolation:auto;mix-blend-mode:normal;color-interpolation:sRGB;color-interpolation-filters:linearRGB;solid-color:#000000;solid-opacity:1;fill:#1a237e;fill-opacity:1;fill-rule:nonzero;stroke:none;stroke-width:17;stroke-linecap:butt;stroke-linejoin:miter;stroke-miterlimit:4;stroke-dasharray:none;stroke-dashoffset:0;stroke-opacity:1;color-rendering:auto;image-rendering:auto;shape-rendering:auto;text-rendering:auto;enable-background:accumulate"
         d="m 370.93499,264.61634 c -15.61904,0 -30.19617,7.20519 -42.61718,19 -12.42102,11.79482 -23.0607,28.22814 -31.9336,48.14844 -17.7458,39.8406 -28.39844,93.8187 -28.39844,153.39649 0,59.57778 10.65264,113.55784 28.39844,153.39843 8.8729,19.9203 19.51258,36.35167 31.9336,48.14649 12.42101,11.79481 26.99814,19 42.61718,19 15.61904,0 30.19617,-7.20519 42.61719,-19 12.42102,-11.79482 23.06069,-28.22619 31.93359,-48.14649 17.7458,-39.84059 28.39844,-93.82065 28.39844,-153.39843 0,-59.57779 -10.65264,-113.55589 -28.39844,-153.39649 -8.8729,-19.9203 -19.51257,-36.35362 -31.93359,-48.14844 -12.42102,-11.79481 -26.99815,-19 -42.61719,-19 z m 0,17 c 10.46241,0 20.73167,4.66278 30.91016,14.32813 10.17849,9.66534 19.89227,24.28396 28.11133,42.73633 16.43811,36.90473 26.92773,88.94882 26.92773,146.48047 0,57.53164 -10.48962,109.57573 -26.92773,146.48046 -8.21906,18.45237 -17.93284,33.07294 -28.11133,42.73829 -10.17849,9.66534 -20.44775,14.32617 -30.91016,14.32617 -10.4624,0 -20.73166,-4.66083 -30.91015,-14.32617 -10.17849,-9.66535 -19.89228,-24.28592 -28.11133,-42.73829 -16.43811,-36.90473 -26.92774,-88.94882 -26.92774,-146.48046 0,-57.53165 10.48963,-109.57574 26.92774,-146.48047 8.21905,-18.45237 17.93284,-33.07099 28.11133,-42.73633 10.17849,-9.66535 20.44775,-14.32813 30.91015,-14.32813 z"
         id="path3832"
         inkscape:connector-curvature="0" />
      <path
         style="color:#000000;font-style:normal;font-variant:normal;font-weight:normal;font-stretch:normal;font-size:medium;line-height:normal;font-family:sans-serif;text-indent:0;text-align:start;text-decoration:none;text-decoration-line:none;text-decoration-style:solid;text-decoration-color:#000000;letter-spacing:normal;word-spacing:normal;text-transform:none;direction:ltr;block-progression:tb;writing-mode:lr-tb;baseline-shift:baseline;text-anchor:start;white-space:normal;clip-rule:nonzero;display:inline;overflow:visible;visibility:visible;opacity:1;isolation:auto;mix-blend-mode:normal;color-interpolation:sRGB;color-interpolation-filters:linearRGB;solid-color:#000000;solid-opacity:1;fill:#1a237e;fill-opacity:1;fill-rule:nonzero;stroke:none;stroke-width:17;stroke-linecap:butt;stroke-linejoin:miter;stroke-miterlimit:4;stroke-dasharray:none;stroke-dashoffset:0;stroke-opacity:1;color-rendering:auto;image-rendering:auto;shape-rendering:auto;text-rendering:auto;enable-background:accumulate"
         d="m 562.28487,594.82232 c 7.7662,-13.5514 8.76297,-29.78143 4.70561,-46.42285 -4.05737,-16.64143 -13.02492,-34.04372 -25.89634,-51.64694 -25.74284,-35.20644 -67.27858,-71.28824 -118.9695,-100.91191 -51.69091,-29.62367 -103.8219,-47.22155 -147.2121,-51.63473 -21.69511,-2.2066 -41.24164,-1.14551 -57.65113,3.76653 -16.40948,4.91202 -29.90899,13.97683 -37.6752,27.52823 -7.7662,13.5514 -8.76297,29.78144 -4.70561,46.42286 4.05737,16.64144 13.02323,34.04275 25.89465,51.64597 25.74283,35.20643 67.28027,71.28921 118.97118,100.91287 51.69092,29.62367 103.82021,47.22058 147.21042,51.63377 21.69511,2.20659 41.24333,1.14648 57.65282,-3.76555 16.40948,-4.91203 29.90898,-13.97685 37.6752,-27.52825 z m -14.74955,-8.45285 c -5.20219,9.0774 -14.35387,15.66876 -27.80074,19.69396 -13.44688,4.0252 -30.96024,5.18431 -51.05663,3.14033 -40.19277,-4.08798 -90.56303,-20.86469 -140.47866,-49.47096 -49.91564,-28.60627 -89.85445,-63.58499 -113.70029,-96.19706 -11.92292,-16.30603 -19.77807,-32.00365 -23.10291,-45.64059 -3.32483,-13.63693 -2.26252,-24.86424 2.93968,-33.94164 5.20218,-9.0774 14.35216,-15.66973 27.79903,-19.69493 13.44688,-4.02521 30.96194,-5.18335 51.05833,-3.13935 40.19277,4.08797 90.56302,20.86467 140.47866,49.47094 49.91564,28.60627 89.85445,63.58501 113.70028,96.19707 11.92293,16.30603 19.77639,32.00267 23.10122,45.63962 3.32484,13.63693 2.26421,24.86522 -2.93797,33.94261 z"
         id="path3838"
         inkscape:connector-curvature="0" />
      <path
         style="color:#000000;font-style:normal;font-variant:normal;font-weight:normal;font-stretch:normal;font-size:medium;line-height:normal;font-family:sans-serif;text-indent:0;text-align:start;text-decoration:none;text-decoration-line:none;text-decoration-style:solid;text-decoration-color:#000000;letter-spacing:normal;word-spacing:normal;text-transform:none;direction:ltr;block-progression:tb;writing-mode:lr-tb;baseline-shift:baseline;text-anchor:start;white-space:normal;clip-rule:nonzero;display:inline;overflow:visible;visibility:visible;opacity:1;isolation:auto;mix-blend-mode:normal;color-interpolation:sRGB;color-interpolation-filters:linearRGB;solid-color:#000000;solid-opacity:1;fill:#1a237e;fill-opacity:1;fill-rule:nonzero;stroke:none;stroke-width:17;stroke-linecap:butt;stroke-linejoin:miter;stroke-miterlimit:4;stroke-dasharray:none;stroke-dashoffset:0;stroke-opacity:1;color-rendering:auto;image-rendering:auto;shape-rendering:auto;text-rendering:auto;enable-background:accumulate"
         d="m 179.92528,595.41303 c 7.80802,13.52735 21.33545,22.55043 37.76002,27.41176 16.42459,4.86134 35.97599,5.86109 57.66418,3.58751 43.37637,-4.54716 95.45108,-22.30496 147.05027,-52.08811 51.59919,-29.78314 93.025,-65.99402 118.65899,-101.27978 12.817,-17.64288 21.72909,-35.0718 25.73504,-51.72568 4.00596,-16.65387 2.95908,-32.88075 -4.84894,-46.40811 -7.80801,-13.52735 -21.33546,-22.55043 -37.76002,-27.41177 -16.42459,-4.86133 -35.97429,-5.86205 -57.66248,-3.58847 -43.37637,4.54715 -95.45277,22.30593 -147.05196,52.08908 -51.59919,29.78315 -93.02331,65.99304 -118.65731,101.2788 -12.817,17.64288 -21.73078,35.07278 -25.73674,51.72666 -4.00595,16.65387 -2.95905,32.88075 4.84895,46.40811 z m 14.72338,-8.49836 c -5.2302,-9.0613 -6.32549,-20.28625 -3.04278,-33.93339 3.28271,-13.64714 11.08766,-29.36796 22.96017,-45.71074 23.74502,-32.68554 63.57563,-67.78743 113.40269,-96.54771 49.82706,-28.76027 100.14526,-45.69244 140.32522,-49.90451 20.08999,-2.10603 37.60854,-1.00199 51.06778,2.98167 13.45923,3.98366 22.62953,10.5477 27.85972,19.609 5.2302,9.06128 6.32718,20.28526 3.04448,33.93239 -3.28271,13.64715 -11.08936,29.36895 -22.96187,45.71172 -23.74502,32.68554 -63.57562,67.78744 -113.40268,96.54771 -49.82707,28.76028 -100.14528,45.69244 -140.32523,49.90451 -20.08998,2.10605 -37.60685,1.00103 -51.06608,-2.98264 -13.45924,-3.98366 -22.63123,-10.54673 -27.86142,-19.60801 z"
         id="path3840"
         inkscape:connector-curvature="0" />
    </g>
    <path
       style="fill:#1a237e;fill-opacity:1"
       id="path3981"
       d="m 490.89547,414.44563 c 0.25532,-2.04276 0.44685,-4.11744 0.44685,-6.22404 0,-2.10662 -0.19153,-4.1813 -0.44685,-6.22406 l 13.50141,-10.56495 c 1.2129,-0.95755 1.564,-2.68113 0.76603,-4.08553 L 492.39562,365.2277 c -0.79797,-1.37249 -2.45772,-1.94702 -3.89404,-1.37249 l -15.89528,6.41557 c -3.28758,-2.52153 -6.89433,-4.66006 -10.78836,-6.2879 l -2.39389,-16.91667 c -0.28725,-1.50015 -1.5959,-2.68114 -3.19183,-2.68114 h -25.53459 c -1.59592,0 -2.90456,1.18099 -3.1599,2.68114 l -2.39387,16.91667 c -3.89404,1.62784 -7.50079,3.73445 -10.78838,6.2879 l -15.89528,-6.41557 c -1.43634,-0.5426 -3.09607,0 -3.89402,1.37249 l -12.76731,22.11935 c -0.79797,1.37247 -0.44685,3.09607 0.76603,4.08553 l 13.4695,10.56495 c -0.25534,2.04276 -0.44685,4.11744 -0.44685,6.22406 0,2.1066 0.19151,4.18128 0.44685,6.22404 l -13.4695,10.56496 c -1.21288,0.95754 -1.564,2.68112 -0.76603,4.08553 l 12.76731,22.11934 c 0.79795,1.37248 2.45768,1.94702 3.89402,1.37248 l 15.89528,-6.41556 c 3.28759,2.52155 6.89434,4.66008 10.78838,6.2879 l 2.39387,16.91667 c 0.25534,1.50016 1.56398,2.68114 3.1599,2.68114 h 25.53459 c 1.59593,0 2.90458,-1.18098 3.15992,-2.68114 l 2.39387,-16.91667 c 3.89402,-1.62782 7.50081,-3.73445 10.78837,-6.2879 l 15.8953,6.41556 c 1.43631,0.54261 3.09606,0 3.89401,-1.37248 L 505.131,429.09612 c 0.79795,-1.37248 0.44685,-3.09606 -0.76603,-4.08553 l -13.4695,-10.56496 z m -47.43053,16.11871 c -12.35236,0 -22.34278,-9.99041 -22.34278,-22.34275 0,-12.35238 9.99042,-22.34279 22.34278,-22.34279 12.35236,0 22.34279,9.99041 22.34279,22.34279 0,12.35234 -9.99043,22.34275 -22.34279,22.34275 z"
       inkscape:connector-curvature="0"
       inkscape:export-xdpi="19.049999"
       inkscape:export-ydpi="19.049999" />
  </g>
</svg>
