<?xml version="1.0" encoding="UTF-8" standalone="no"?>
<!-- Created with Inkscape (http://www.inkscape.org/) -->

<svg
   xmlns:dc="http://purl.org/dc/elements/1.1/"
   xmlns:cc="http://creativecommons.org/ns#"
   xmlns:rdf="http://www.w3.org/1999/02/22-rdf-syntax-ns#"
   xmlns:svg="http://www.w3.org/2000/svg"
   xmlns="http://www.w3.org/2000/svg"
   xmlns:sodipodi="http://sodipodi.sourceforge.net/DTD/sodipodi-0.dtd"
   xmlns:inkscape="http://www.inkscape.org/namespaces/inkscape"
   width="738.64801"
   height="821.09631"
   id="svg2986"
   version="1.1"
   inkscape:version="0.48.5 r10040"
   sodipodi:docname="radioactive-logo-white.pdf">
  <defs
     id="defs2988" />
  <sodipodi:namedview
     id="base"
     pagecolor="#ffffff"
     bordercolor="#666666"
     borderopacity="1.0"
     inkscape:pageopacity="0.0"
     inkscape:pageshadow="2"
     inkscape:zoom="0.7"
     inkscape:cx="50.814934"
     inkscape:cy="482.15933"
     inkscape:document-units="px"
     inkscape:current-layer="layer3"
     showgrid="false"
     showguides="true"
     inkscape:guide-bbox="true"
     inkscape:window-width="2324"
     inkscape:window-height="994"
     inkscape:window-x="0"
     inkscape:window-y="0"
     inkscape:window-maximized="0"
     fit-margin-top="0"
     fit-margin-left="0"
     fit-margin-right="0"
     fit-margin-bottom="0" />
  <metadata
     id="metadata2991">
    <rdf:RDF>
      <cc:Work
         rdf:about="">
        <dc:format>image/svg+xml</dc:format>
        <dc:type
           rdf:resource="http://purl.org/dc/dcmitype/StillImage" />
        <dc:title></dc:title>
      </cc:Work>
    </rdf:RDF>
  </metadata>
  <g
     inkscape:groupmode="layer"
     id="layer3"
     inkscape:label="Layer"
     transform="translate(-2.8894244,-66.052343)"
     style="display:inline">
    <path
       inkscape:connector-curvature="0"
       d="m 414.61207,535.53169 c 0.40189,-3.2153 0.70335,-6.48084 0.70335,-9.7966 0,-3.31578 -0.30146,-6.58131 -0.70335,-9.79659 l 21.25107,-16.62912 c 1.9091,-1.50717 2.46173,-4.22006 1.20575,-6.43059 l -20.09558,-34.81561 c -1.25598,-2.16029 -3.86841,-3.06459 -6.12916,-2.16029 l -25.01904,10.09804 c -5.1746,-3.96888 -10.8516,-7.33489 -16.98077,-9.89708 l -3.76792,-26.62664 c -0.45216,-2.36124 -2.51195,-4.2201 -5.0239,-4.2201 h -40.19117 c -2.51195,0 -4.57176,1.85886 -4.97366,4.2201 l -3.76793,26.62664 c -6.12916,2.56219 -11.80616,5.87795 -16.98078,9.89708 l -25.019,-10.09804 c -2.26075,-0.85406 -4.8732,0 -6.12917,2.16029 l -20.09559,34.81561 c -1.25598,2.16029 -0.70335,4.87318 1.20573,6.43059 l 21.20085,16.62912 c -0.40191,3.21528 -0.70333,6.48081 -0.70333,9.79659 0,3.31576 0.30142,6.5813 0.70333,9.7966 l -21.20085,16.62912 c -1.90908,1.50716 -2.46171,4.22006 -1.20573,6.43057 l 20.09559,34.81561 c 1.25597,2.16029 3.86842,3.06459 6.12917,2.16029 l 25.019,-10.09804 c 5.17462,3.96888 10.85162,7.33489 16.98078,9.89709 l 3.76793,26.62665 c 0.4019,2.36122 2.46171,4.22008 4.97366,4.22008 h 40.19117 c 2.51195,0 4.57174,-1.85886 4.97365,-4.22008 l 3.76792,-26.62665 c 6.12918,-2.5622 11.80618,-5.87796 16.9808,-9.89709 l 25.01901,10.09804 c 2.26076,0.85404 4.87319,0 6.12916,-2.16029 l 20.09559,-34.81561 c 1.25598,-2.16027 0.70335,-4.87318 -1.20573,-6.43057 l -21.20085,-16.62912 z m -74.65514,25.37069 c -19.44248,0 -35.16728,-15.72481 -35.16728,-35.16729 0,-19.4425 15.7248,-35.16728 35.16728,-35.16728 19.44249,0 35.16729,15.72478 35.16729,35.16728 0,19.44248 -15.7248,35.16729 -35.16729,35.16729 z"
       id="path3939"
       style="fill:#ffffff;fill-opacity:1"
       inkscape:export-filename="/Users/kenhaigh/Downloads/path3981.png"
       inkscape:export-xdpi="19.049999"
       inkscape:export-ydpi="19.049999" />
    <g
       id="g3842"
       style="stroke:#3f51b5"
       inkscape:export-filename="/Users/kenhaigh/Downloads/path3981.png"
       inkscape:export-xdpi="19.049999"
       inkscape:export-ydpi="19.049999"
       transform="matrix(1.8615007,0,0,1.8615007,-318.27567,-426.53843)">
      <path
         style="font-size:medium;font-style:normal;font-variant:normal;font-weight:normal;font-stretch:normal;text-indent:0;text-align:start;text-decoration:none;line-height:normal;letter-spacing:normal;word-spacing:normal;text-transform:none;direction:ltr;block-progression:tb;writing-mode:lr-tb;text-anchor:start;baseline-shift:baseline;color:#000000;fill:#ffffff;fill-opacity:1;stroke:none;stroke-width:17;marker:none;visibility:visible;display:inline;overflow:visible;enable-background:accumulate;font-family:Sans;-inkscape-font-specification:Sans"
         d="m 370.93304,264.62025 c -15.61904,0 -30.20398,7.20519 -42.625,19 -12.42102,11.79481 -23.0646,28.23595 -31.9375,48.15625 -17.7458,39.8406 -28.375,93.79721 -28.375,153.375 0,59.57779 10.6292,113.56565 28.375,153.40625 8.8729,19.9203 19.51648,36.36144 31.9375,48.15625 12.42102,11.79481 27.00596,19 42.625,19 15.61904,0 30.20398,-7.20519 42.625,-19 12.42102,-11.79481 23.0646,-28.23595 31.9375,-48.15625 17.7458,-39.8406 28.375,-93.82846 28.375,-153.40625 0,-59.57779 -10.6292,-113.5344 -28.375,-153.375 -8.8729,-19.9203 -19.51648,-36.36144 -31.9375,-48.15625 -12.42102,-11.79481 -27.00596,-19 -42.625,-19 z m 0,17 c 10.4624,0 20.72776,4.64715 30.90625,14.3125 10.17849,9.66535 19.90595,24.29763 28.125,42.75 16.43811,36.90474 26.90625,88.93711 26.90625,146.46875 0,57.53164 -10.46814,109.59526 -26.90625,146.5 -8.21905,18.45237 -17.94651,33.0534 -28.125,42.71875 -10.17849,9.66535 -20.44385,14.34375 -30.90625,14.34375 -10.4624,0 -20.72776,-4.6784 -30.90625,-14.34375 -10.17849,-9.66535 -19.90595,-24.26638 -28.125,-42.71875 -16.43811,-36.90474 -26.90625,-88.96836 -26.90625,-146.5 0,-57.53164 10.46814,-109.56401 26.90625,-146.46875 8.21905,-18.45237 17.94651,-33.08465 28.125,-42.75 10.17849,-9.66535 20.44385,-14.3125 30.90625,-14.3125 z"
         id="path3832"
         inkscape:connector-curvature="0" />
      <path
         style="font-size:medium;font-style:normal;font-variant:normal;font-weight:normal;font-stretch:normal;text-indent:0;text-align:start;text-decoration:none;line-height:normal;letter-spacing:normal;word-spacing:normal;text-transform:none;direction:ltr;block-progression:tb;writing-mode:lr-tb;text-anchor:start;baseline-shift:baseline;color:#000000;fill:#ffffff;fill-opacity:1;stroke:none;stroke-width:17;marker:none;visibility:visible;display:inline;overflow:visible;enable-background:accumulate;font-family:Sans;-inkscape-font-specification:Sans"
         d="m 562.28245,594.81869 c 7.7662,-13.5514 8.76685,-29.78821 4.70949,-46.42964 -4.05735,-16.64143 -13.02975,-34.05099 -25.90117,-51.65421 C 515.34793,461.52841 473.81918,425.47762 422.12826,395.85395 370.43734,366.23028 318.31124,348.60819 274.92103,344.195 c -21.69511,-2.2066 -41.25206,-1.14698 -57.66154,3.76506 -16.40948,4.91203 -29.91288,13.98361 -37.67908,27.53502 -7.76621,13.5514 -8.76686,29.78821 -4.7095,46.42963 4.05736,16.64143 13.02976,34.051 25.90118,51.65421 25.74284,35.20644 67.29869,71.27276 118.98961,100.89643 51.69092,29.62367 103.78991,47.23023 147.18013,51.64342 21.6951,2.20659 41.25205,1.14698 57.66153,-3.76506 16.40949,-4.91204 29.91288,-13.98362 37.67909,-27.53502 z m -14.74956,-8.45286 c -5.20218,9.0774 -14.33836,15.67315 -27.78523,19.69835 -13.44687,4.02519 -30.9789,5.18938 -51.07528,3.14538 -40.19279,-4.08798 -90.54218,-20.87749 -140.45782,-49.48376 -49.91564,-28.60627 -89.88207,-63.57607 -113.72792,-96.18814 -11.92292,-16.30603 -19.75432,-32.00579 -23.07916,-45.64273 -3.32484,-13.63694 -2.27971,-24.86961 2.92248,-33.947 5.20218,-9.07739 14.36547,-15.65761 27.81235,-19.6828 13.44687,-4.0252 30.95178,-5.20492 51.04817,-3.16093 40.19278,4.08798 90.56929,20.89303 140.48493,49.4993 49.91563,28.60627 89.85495,63.56053 113.7008,96.1726 11.92292,16.30603 19.78144,32.02134 23.10628,45.65828 3.32484,13.63693 2.25259,24.85406 -2.9496,33.93145 z"
         id="path3838"
         inkscape:connector-curvature="0" />
      <path
         style="font-size:medium;font-style:normal;font-variant:normal;font-weight:normal;font-stretch:normal;text-indent:0;text-align:start;text-decoration:none;line-height:normal;letter-spacing:normal;word-spacing:normal;text-transform:none;direction:ltr;block-progression:tb;writing-mode:lr-tb;text-anchor:start;baseline-shift:baseline;color:#000000;fill:#ffffff;fill-opacity:1;stroke:none;stroke-width:17;marker:none;visibility:visible;display:inline;overflow:visible;enable-background:accumulate;font-family:Sans;-inkscape-font-specification:Sans"
         d="m 179.92964,595.41276 c 7.80802,13.52736 21.33936,22.5572 37.76393,27.41854 16.42458,4.86134 35.9847,5.86056 57.67289,3.58698 43.37638,-4.54716 95.42075,-22.31451 147.01995,-52.09766 51.59919,-29.78316 93.04348,-65.97763 118.67748,-101.26339 12.817,-17.64288 21.73559,-35.08007 25.74154,-51.73395 4.00595,-16.65388 2.95517,-32.88752 -4.85285,-46.41487 -7.80801,-13.52736 -21.33936,-22.5572 -37.76393,-27.41854 -16.42457,-4.86134 -35.9847,-5.86056 -57.67289,-3.58698 -43.37637,4.54716 -95.44781,22.33014 -147.04701,52.11329 -51.59919,29.78315 -93.01641,65.962 -118.65041,101.24776 -12.817,17.64288 -21.7356,35.08007 -25.74155,51.73395 -4.00595,16.65388 -2.95516,32.88752 4.85285,46.41487 z m 14.72338,-8.49836 c -5.23019,-9.06128 -6.33707,-20.27505 -3.05436,-33.92219 3.28271,-13.64714 11.09266,-29.38663 22.96518,-45.7294 23.74502,-32.68555 63.57621,-67.76298 113.40327,-96.52325 49.82707,-28.76028 100.15144,-45.72081 140.33141,-49.93289 20.08998,-2.10604 37.59845,-0.98038 51.05769,3.00328 13.45924,3.98365 22.6428,10.53553 27.87299,19.59682 5.23019,9.06129 6.31001,20.29067 3.0273,33.93781 -3.28271,13.64714 -11.0656,29.37102 -22.93811,45.71379 -23.74503,32.68554 -63.60328,67.77859 -113.43034,96.53887 -49.82707,28.76027 -100.12438,45.70518 -140.30435,49.91726 -20.08998,2.10604 -37.62551,0.996 -51.08475,-2.98765 -13.45924,-3.98366 -22.61574,-10.55116 -27.84593,-19.61245 z"
         id="path3840"
         inkscape:connector-curvature="0" />
    </g>
    <path
       style="fill:#ffffff;fill-opacity:1"
       id="path3981"
       d="m 490.89547,414.44563 c 0.25532,-2.04276 0.44685,-4.11744 0.44685,-6.22404 0,-2.10662 -0.19153,-4.1813 -0.44685,-6.22406 l 13.50141,-10.56495 c 1.2129,-0.95755 1.564,-2.68113 0.76603,-4.08553 L 492.39562,365.2277 c -0.79797,-1.37249 -2.45772,-1.94702 -3.89404,-1.37249 l -15.89528,6.41557 c -3.28758,-2.52153 -6.89433,-4.66006 -10.78836,-6.2879 l -2.39389,-16.91667 c -0.28725,-1.50015 -1.5959,-2.68114 -3.19183,-2.68114 h -25.53459 c -1.59592,0 -2.90456,1.18099 -3.1599,2.68114 l -2.39387,16.91667 c -3.89404,1.62784 -7.50079,3.73445 -10.78838,6.2879 l -15.89528,-6.41557 c -1.43634,-0.5426 -3.09607,0 -3.89402,1.37249 l -12.76731,22.11935 c -0.79797,1.37247 -0.44685,3.09607 0.76603,4.08553 l 13.4695,10.56495 c -0.25534,2.04276 -0.44685,4.11744 -0.44685,6.22406 0,2.1066 0.19151,4.18128 0.44685,6.22404 l -13.4695,10.56496 c -1.21288,0.95754 -1.564,2.68112 -0.76603,4.08553 l 12.76731,22.11934 c 0.79795,1.37248 2.45768,1.94702 3.89402,1.37248 l 15.89528,-6.41556 c 3.28759,2.52155 6.89434,4.66008 10.78838,6.2879 l 2.39387,16.91667 c 0.25534,1.50016 1.56398,2.68114 3.1599,2.68114 h 25.53459 c 1.59593,0 2.90458,-1.18098 3.15992,-2.68114 l 2.39387,-16.91667 c 3.89402,-1.62782 7.50081,-3.73445 10.78837,-6.2879 l 15.8953,6.41556 c 1.43631,0.54261 3.09606,0 3.89401,-1.37248 L 505.131,429.09612 c 0.79795,-1.37248 0.44685,-3.09606 -0.76603,-4.08553 l -13.4695,-10.56496 z m -47.43053,16.11871 c -12.35236,0 -22.34278,-9.99041 -22.34278,-22.34275 0,-12.35238 9.99042,-22.34279 22.34278,-22.34279 12.35236,0 22.34279,9.99041 22.34279,22.34279 0,12.35234 -9.99043,22.34275 -22.34279,22.34275 z"
       inkscape:connector-curvature="0"
       inkscape:export-xdpi="19.049999"
       inkscape:export-ydpi="19.049999" />
  </g>
</svg>
