<svg xmlns="http://www.w3.org/2000/svg" width="738.648" height="821.096"><g fill="#fff"><path d="M411.723 469.48c.402-3.216.703-6.48.703-9.797 0-3.316-.3-6.582-.703-9.797l21.25-16.63c1.91-1.506 2.462-4.22 1.206-6.43l-20.096-34.815c-1.256-2.16-3.87-3.064-6.13-2.16l-25.018 10.1c-5.175-3.97-10.852-7.336-16.98-9.898l-3.77-26.627c-.45-2.36-2.51-4.22-5.023-4.22h-40.19c-2.513 0-4.573 1.86-4.975 4.22l-3.768 26.627c-6.13 2.562-11.806 5.877-16.98 9.897l-25.02-10.1c-2.26-.854-4.873 0-6.13 2.16l-20.094 34.816c-1.256 2.16-.704 4.874 1.206 6.43l21.2 16.63c-.402 3.215-.703 6.48-.703 9.797 0 3.316.3 6.58.702 9.796l-21.2 16.628c-1.91 1.508-2.462 4.22-1.206 6.43l20.095 34.817c1.257 2.16 3.87 3.064 6.13 2.16l25.02-10.098c5.174 3.97 10.85 7.335 16.98 9.897l3.768 26.627c.402 2.362 2.462 4.22 4.974 4.22h40.19c2.513 0 4.573-1.858 4.975-4.22l3.768-26.626c6.13-2.562 11.806-5.878 16.98-9.897l25.02 10.098c2.26.854 4.873 0 6.13-2.16l20.094-34.816c1.255-2.16.703-4.874-1.207-6.432l-21.2-16.63zm-71.766 91.422c-19.443 0-35.167-15.724-35.167-35.167 0-19.442 15.724-35.167 35.167-35.167 19.442 0 35.167 15.725 35.167 35.167 0 19.443-15.725 35.167-35.167 35.167z"/><g stroke="none" color="#000" stroke-width="17" font-family="Sans"><path style="text-indent:0;text-align:start;line-height:normal;text-transform:none;block-progression:tb;-inkscape-font-specification:Sans" d="M369.512.132c-29.082 0-56.24 13.416-79.367 35.378-23.128 21.962-42.947 52.575-59.468 89.667-33.043 74.183-52.834 174.65-52.834 285.584 0 110.935 19.79 211.46 52.834 285.644 16.52 37.09 36.34 67.705 59.468 89.666 23.128 21.962 50.285 35.378 79.367 35.378 29.083 0 56.24-13.416 79.368-35.378 23.128-21.96 42.946-52.575 59.468-89.666 33.042-74.184 52.834-174.71 52.834-285.643 0-110.933-19.792-211.4-52.834-285.583-16.522-37.092-36.34-67.705-59.468-89.667C425.752 13.548 398.595.132 369.512.132zm1.42 296.142c19.482 0 38.596 8.653 57.548 26.65 18.953 17.997 37.065 45.242 52.37 79.6 30.607 68.717 50.1 165.602 50.1 272.725 0 107.123-19.493 204.066-50.1 272.782-15.305 34.36-33.417 61.546-52.37 79.543-18.952 17.997-38.066 26.708-57.547 26.708-19.48 0-38.595-8.71-57.547-26.708-18.953-17.997-37.065-45.184-52.37-79.543-30.607-68.716-50.1-165.66-50.1-272.783 0-107.124 19.493-204.01 50.1-272.725 15.305-34.36 33.417-61.604 52.37-79.6 18.952-17.998 38.066-26.65 57.547-26.65z" overflow="visible" enable-background="accumulate"/><path style="text-indent:0;text-align:start;line-height:normal;text-transform:none;block-progression:tb;-inkscape-font-specification:Sans" d="M725.805 614.96c14.46-25.23 16.324-55.464 8.77-86.45-7.556-30.987-24.262-63.404-48.23-96.18-47.932-65.555-125.26-132.682-221.507-187.84-96.25-55.16-193.307-87.973-274.1-96.19-40.396-4.11-76.81-2.136-107.366 7.01-30.554 9.147-55.698 26.038-70.158 51.27-14.46 25.234-16.324 55.466-8.77 86.453 7.555 30.986 24.262 63.403 48.23 96.18 47.932 65.554 125.31 132.71 221.557 187.87 96.25 55.158 193.258 87.942 274.05 96.16 40.397 4.108 76.812 2.135 107.366-7.01 30.555-9.148 55.698-26.04 70.16-51.272zm-190.986-35.88c-9.688 16.902-26.7 29.183-51.737 36.678-25.038 7.495-57.683 9.662-95.103 5.856-74.838-7.61-168.59-38.873-261.532-92.138-92.943-53.265-167.36-118.38-211.76-179.103-22.202-30.36-36.784-59.594-42.975-84.986-6.19-25.392-4.245-46.308 5.442-63.21 9.686-16.902 26.748-29.154 51.787-36.65 25.038-7.494 57.632-9.69 95.05-5.885 74.84 7.612 168.64 38.903 261.584 92.168 92.943 53.265 167.31 118.35 211.71 179.073 22.202 30.362 36.834 59.624 43.025 85.016 6.192 25.39 4.195 46.277-5.49 63.18z" overflow="visible" enable-background="accumulate"/><path style="text-indent:0;text-align:start;line-height:normal;text-transform:none;block-progression:tb;-inkscape-font-specification:Sans" d="M13.864 616.068c14.54 25.188 39.734 42 70.316 51.053 30.583 9.053 67.004 10.913 107.387 6.68 80.767-8.467 177.674-41.55 273.75-97.006 96.08-55.456 173.248-122.85 220.98-188.552 23.864-32.85 40.47-65.32 47.93-96.33 7.46-31.01 5.502-61.236-9.036-86.424-14.538-25.187-39.733-42-70.316-51.053-30.582-9.052-67.003-10.912-107.387-6.68-80.766 8.468-177.723 41.58-273.8 97.036-96.08 55.457-173.198 122.822-220.928 188.524-23.867 32.85-40.473 65.32-47.932 96.33-7.46 31.01-5.503 61.236 9.036 86.424zm193.48-36.48c-9.738-16.87-11.8-37.75-5.687-63.162 6.113-25.41 20.655-54.718 42.762-85.148 44.212-60.86 118.377-126.175 211.155-179.727 92.778-53.55 186.482-85.13 261.297-92.974 37.408-3.92 70.01-1.825 95.07 5.592 25.06 7.418 42.16 19.617 51.9 36.49 9.738 16.872 11.75 37.78 5.636 63.192-6.112 25.41-20.604 54.69-42.71 85.12-44.214 60.86-118.43 126.203-211.208 179.754-92.778 53.552-186.43 85.103-261.247 92.946-37.407 3.922-70.058 1.855-95.12-5.563-25.06-7.417-42.11-19.646-51.848-36.518z" overflow="visible" enable-background="accumulate"/></g><path d="M488.006 348.393c.255-2.042.447-4.117.447-6.224s-.192-4.182-.447-6.225l13.5-10.565c1.214-.957 1.565-2.68.767-4.085l-12.767-22.12c-.798-1.372-2.458-1.947-3.894-1.372l-15.895 6.415c-3.288-2.52-6.894-4.66-10.788-6.287l-2.395-16.916c-.288-1.5-1.596-2.68-3.192-2.68h-25.535c-1.596 0-2.904 1.18-3.16 2.68l-2.394 16.917c-3.894 1.628-7.5 3.735-10.788 6.288l-15.895-6.415c-1.436-.543-3.095 0-3.893 1.372l-12.768 22.12c-.8 1.372-.447 3.096.765 4.085l13.47 10.565c-.255 2.043-.447 4.118-.447 6.224s.192 4.18.447 6.223l-13.47 10.565c-1.212.958-1.564 2.68-.766 4.086l12.767 22.12c.798 1.372 2.457 1.946 3.894 1.372l15.896-6.416c3.288 2.522 6.894 4.66 10.788 6.288l2.394 16.917c.256 1.5 1.564 2.68 3.16 2.68h25.535c1.596 0 2.904-1.18 3.16-2.68l2.394-16.917c3.894-1.628 7.5-3.735 10.788-6.288l15.895 6.416c1.437.542 3.096 0 3.894-1.373l12.768-22.12c.798-1.372.446-3.095-.766-4.085l-13.47-10.565zm-44.54 82.17c-12.353 0-22.344-9.99-22.344-22.34 0-12.354 9.99-22.344 22.343-22.344 12.352 0 22.343 9.99 22.343 22.342 0 12.352-9.99 22.342-22.343 22.342z"/></g></svg>