<?xml version="1.0" encoding="UTF-8" standalone="no"?>
<!-- Created with Inkscape (http://www.inkscape.org/) -->

<svg
   xmlns:dc="http://purl.org/dc/elements/1.1/"
   xmlns:cc="http://creativecommons.org/ns#"
   xmlns:rdf="http://www.w3.org/1999/02/22-rdf-syntax-ns#"
   xmlns:svg="http://www.w3.org/2000/svg"
   xmlns="http://www.w3.org/2000/svg"
   xmlns:xlink="http://www.w3.org/1999/xlink"
   xmlns:sodipodi="http://sodipodi.sourceforge.net/DTD/sodipodi-0.dtd"
   xmlns:inkscape="http://www.inkscape.org/namespaces/inkscape"
   width="449.08612mm"
   height="69.059875mm"
   viewBox="0 0 1591.25 244.70035"
   id="svg4864"
   version="1.1"
   inkscape:version="0.91 r13725"
   sodipodi:docname="radioactive-logo-inverse.svg">
  <defs
     id="defs4866">
    <linearGradient
       inkscape:collect="always"
       xlink:href="#linearGradient9052"
       id="linearGradient9166-6"
       gradientUnits="userSpaceOnUse"
       x1="457.95721"
       y1="350.62753"
       x2="620.60687"
       y2="350.62753" />
    <linearGradient
       inkscape:collect="always"
       id="linearGradient9052">
      <stop
         style="stop-color:#ffd600;stop-opacity:1;"
         offset="0"
         id="stop9054" />
      <stop
         style="stop-color:#ffd600;stop-opacity:0;"
         offset="1"
         id="stop9056" />
    </linearGradient>
  </defs>
  <sodipodi:namedview
     id="base"
     pagecolor="#ffffff"
     bordercolor="#666666"
     borderopacity="1.0"
     inkscape:pageopacity="0.0"
     inkscape:pageshadow="2"
     inkscape:zoom="0.35"
     inkscape:cx="2354.9107"
     inkscape:cy="-711.93554"
     inkscape:document-units="px"
     inkscape:current-layer="layer1"
     showgrid="false"
     fit-margin-top="0"
     fit-margin-left="0"
     fit-margin-right="0"
     fit-margin-bottom="0"
     inkscape:window-width="2560"
     inkscape:window-height="1411"
     inkscape:window-x="-9"
     inkscape:window-y="-9"
     inkscape:window-maximized="1" />
  <metadata
     id="metadata4869">
    <rdf:RDF>
      <cc:Work
         rdf:about="">
        <dc:format>image/svg+xml</dc:format>
        <dc:type
           rdf:resource="http://purl.org/dc/dcmitype/StillImage" />
        <dc:title></dc:title>
      </cc:Work>
    </rdf:RDF>
  </metadata>
  <g
     inkscape:label="Layer 1"
     inkscape:groupmode="layer"
     id="layer1"
     transform="translate(2644.1964,424.27368)">
    <g
       transform="translate(-4195.2071,-1158.1748)"
       style="font-style:normal;font-weight:normal;font-size:12px;font-family:Dialog;color-interpolation:auto;fill:#000000;fill-opacity:1;stroke:#000000;stroke-width:1;stroke-linecap:square;stroke-linejoin:miter;stroke-miterlimit:10;stroke-dasharray:none;stroke-dashoffset:0;stroke-opacity:1;color-rendering:auto;image-rendering:auto;shape-rendering:auto;text-rendering:auto"
       id="g4508">
      <path
         d="m 1636.4795,879.21362 -66.0938,0 0,94.6875 -19.375,0 0,-227.5 73.9063,0 q 17.8125,0 32.0312,4.375 14.375,4.375 24.375,12.96875 10.1563,8.4375 15.4688,20.9375 5.4687,12.5 5.4687,28.75 0,11.25 -3.4375,21.25 -3.4375,9.84375 -9.6875,17.8125 -6.25,7.96875 -15,13.75 -8.5937,5.78125 -19.0625,8.90625 l 56.875,96.71875 0,2.03125 -20.4687,0 -55,-94.6875 z m -66.0938,-16.40625 58.9063,0 q 13.2812,0 23.2812,-4.0625 10.1563,-4.0625 16.875,-10.78125 6.7188,-6.875 10,-15.78125 3.4375,-9.0625 3.4375,-18.75 0,-11.71875 -3.75,-21.09375 -3.75,-9.375 -11.25,-15.9375 -7.3437,-6.5625 -18.125,-10 -10.7812,-3.59375 -24.8437,-3.59375 l -54.5313,0 0,100 z"
         style="font-style:normal;font-variant:normal;font-weight:300;font-stretch:normal;font-size:medium;line-height:125%;font-family:Roboto;-inkscape-font-specification:'Roboto, Light';text-align:start;letter-spacing:0px;word-spacing:0px;writing-mode:lr-tb;text-anchor:start;color-interpolation:auto;fill:#ffffff;fill-opacity:1;stroke:none;stroke-width:1px;stroke-linecap:butt;stroke-linejoin:miter;stroke-miterlimit:10;stroke-dasharray:none;stroke-dashoffset:0;stroke-opacity:1;color-rendering:auto;image-rendering:auto;shape-rendering:auto;text-rendering:auto"
         id="path4475"
         inkscape:connector-curvature="0" />
      <path
         d="m 1856.9482,973.90112 q -1.5625,-4.375 -2.5,-10.625 -0.7812,-6.40625 -1.0937,-12.96875 -4.2188,5.46875 -10,10.3125 -5.7813,4.84375 -12.9688,8.4375 -7.1875,3.59375 -15.7812,5.78125 -8.5938,2.1875 -18.5938,2.1875 -12.3437,0 -22.5,-3.59375 -10,-3.59375 -17.1875,-10 -7.0312,-6.5625 -10.9375,-15.3125 -3.9062,-8.75 -3.9062,-19.0625 0,-12.34375 5.3125,-22.1875 5.3125,-10 15.3125,-16.875 10,-7.03125 24.2187,-10.625 14.375,-3.75 32.1875,-3.75 l 34.6875,0 0,-19.21875 q 0,-18.125 -11.25,-28.4375 -11.0937,-10.46875 -32.5,-10.46875 -9.8437,0 -18.125,2.65625 -8.2812,2.65625 -14.375,7.34375 -5.9375,4.6875 -9.375,10.9375 -3.2812,6.09375 -3.2812,13.125 l -18.75,-0.15625 q 0,-9.53125 4.6875,-18.4375 4.6875,-8.90625 13.125,-15.78125 8.5937,-7.03125 20.4687,-11.25 12.0313,-4.21875 26.5625,-4.21875 13.4375,0 24.6875,3.4375 11.4063,3.4375 19.5313,10.3125 8.125,6.875 12.6562,17.1875 4.5313,10.3125 4.5313,24.0625 l 0,81.875 q 0,4.375 0.3125,9.0625 0.3125,4.6875 0.9375,9.0625 0.7812,4.375 1.7187,8.4375 0.9375,3.90625 2.1875,6.875 l 0,1.875 -20,0 z m -58.75,-13.4375 q 10.1563,0 18.75,-2.5 8.75,-2.65625 15.7813,-7.1875 7.0312,-4.53125 12.1875,-10.46875 5.1562,-6.09375 8.2812,-13.125 l 0,-37.1875 -32.0312,0 q -14.375,0 -25.7813,2.65625 -11.25,2.5 -19.0625,7.34375 -7.8125,4.84375 -12.0312,11.875 -4.0625,6.875 -4.0625,15.625 0,6.875 2.6562,12.96875 2.6563,5.9375 7.5,10.46875 5,4.375 12.0313,7.03125 7.0312,2.5 15.7812,2.5 z"
         style="font-style:normal;font-variant:normal;font-weight:300;font-stretch:normal;font-size:medium;line-height:125%;font-family:Roboto;-inkscape-font-specification:'Roboto, Light';text-align:start;letter-spacing:0px;word-spacing:0px;writing-mode:lr-tb;text-anchor:start;color-interpolation:auto;fill:#ffffff;fill-opacity:1;stroke:none;stroke-width:1px;stroke-linecap:butt;stroke-linejoin:miter;stroke-miterlimit:10;stroke-dasharray:none;stroke-dashoffset:0;stroke-opacity:1;color-rendering:auto;image-rendering:auto;shape-rendering:auto;text-rendering:auto"
         id="path4477"
         inkscape:connector-curvature="0" />
      <path
         d="m 1914.6045,887.80737 q 0,-19.6875 4.5312,-35.46875 4.5313,-15.9375 12.9688,-27.1875 8.4375,-11.25 20.4687,-17.34375 12.1875,-6.09375 27.3438,-6.09375 17.9687,0 30.7812,7.1875 12.9688,7.1875 21.4063,19.84375 l 0,-94.84375 18.5937,0 0,240 -17.5,0 -0.7812,-22.5 q -8.4375,12.03125 -21.5625,18.90625 -12.9688,6.71875 -31.25,6.71875 -15,0 -27.0313,-6.25 -12.0312,-6.40625 -20.4687,-17.65625 -8.4375,-11.40625 -12.9688,-27.1875 -4.5312,-15.78125 -4.5312,-34.84375 l 0,-3.28125 z m 18.9062,3.28125 q 0,14.84375 2.9688,27.65625 2.9687,12.65625 9.0625,22.03125 6.0937,9.375 15.3125,14.6875 9.375,5.3125 22.1875,5.3125 9.5312,0 17.1875,-2.1875 7.8125,-2.34375 13.75,-6.40625 6.0937,-4.0625 10.4687,-9.6875 4.5313,-5.625 7.6563,-12.1875 l 0,-79.375 q -2.8125,-6.40625 -6.875,-12.34375 -4.0625,-5.9375 -10,-10.46875 -5.9375,-4.6875 -13.75,-7.34375 -7.8125,-2.8125 -18.125,-2.8125 -12.9688,0 -22.3438,5.46875 -9.375,5.3125 -15.4687,14.6875 -6.0938,9.375 -9.0625,22.1875 -2.9688,12.8125 -2.9688,27.5 l 0,3.28125 z"
         style="font-style:normal;font-variant:normal;font-weight:300;font-stretch:normal;font-size:medium;line-height:125%;font-family:Roboto;-inkscape-font-specification:'Roboto, Light';text-align:start;letter-spacing:0px;word-spacing:0px;writing-mode:lr-tb;text-anchor:start;color-interpolation:auto;fill:#ffffff;fill-opacity:1;stroke:none;stroke-width:1px;stroke-linecap:butt;stroke-linejoin:miter;stroke-miterlimit:10;stroke-dasharray:none;stroke-dashoffset:0;stroke-opacity:1;color-rendering:auto;image-rendering:auto;shape-rendering:auto;text-rendering:auto"
         id="path4479"
         inkscape:connector-curvature="0" />
      <path
         d="m 2121.167,973.90112 -18.75,0 0,-169.0625 18.75,0 0,169.0625 z m -22.0313,-217.96875 q 0,-5.3125 3.4375,-8.90625 3.4375,-3.75 9.375,-3.75 5.9375,0 9.375,3.75 3.5938,3.59375 3.5938,8.90625 0,5.3125 -3.5938,8.90625 -3.4375,3.59375 -9.375,3.59375 -5.9375,0 -9.375,-3.59375 -3.4375,-3.59375 -3.4375,-8.90625 z"
         style="font-style:normal;font-variant:normal;font-weight:300;font-stretch:normal;font-size:medium;line-height:125%;font-family:Roboto;-inkscape-font-specification:'Roboto, Light';text-align:start;letter-spacing:0px;word-spacing:0px;writing-mode:lr-tb;text-anchor:start;color-interpolation:auto;fill:#ffffff;fill-opacity:1;stroke:none;stroke-width:1px;stroke-linecap:butt;stroke-linejoin:miter;stroke-miterlimit:10;stroke-dasharray:none;stroke-dashoffset:0;stroke-opacity:1;color-rendering:auto;image-rendering:auto;shape-rendering:auto;text-rendering:auto"
         id="path4481"
         inkscape:connector-curvature="0" />
      <g
         id="g9117-8-8"
         style="font-style:normal;font-weight:normal;font-size:12px;font-family:Dialog;color-interpolation:auto;fill:#000000;fill-opacity:1;stroke:#000000;stroke-width:1;stroke-linecap:square;stroke-linejoin:miter;stroke-miterlimit:10;stroke-dasharray:none;stroke-dashoffset:0;stroke-opacity:1;color-rendering:auto;image-rendering:auto;shape-rendering:auto;text-rendering:auto"
         transform="matrix(1.0112359,0,0,1.0112359,1689.3561,534.12597)">
        <path
           style="font-style:normal;font-weight:normal;font-size:medium;font-family:Dialog;color-interpolation:auto;fill:#d9bf00;fill-opacity:1;stroke:none;stroke-width:1;stroke-linecap:square;stroke-linejoin:miter;stroke-miterlimit:10;stroke-dasharray:none;stroke-dashoffset:0;stroke-opacity:1;color-rendering:auto;image-rendering:auto;shape-rendering:auto;text-rendering:auto"
           d="m 538.83663,261.47514 c -46.34757,-0.81799 -88.72919,40.71665 -88.46412,87.12983 -1.89891,44.90464 35.70415,87.72873 80.79718,90.5157 34.51883,3.48444 70.14691,-15.17398 86.33753,-45.99238 17.33268,-31.38343 13.7923,-73.50536 -10.59632,-100.27593 -16.77009,-19.55412 -42.15032,-31.91011 -68.07427,-31.37722 z"
           id="path7132-5-3-8-4-9-0-7"
           inkscape:connector-curvature="0" />
        <path
           style="font-style:normal;font-weight:normal;font-size:medium;font-family:Dialog;color-interpolation:auto;fill:url(#linearGradient9166-6);fill-opacity:1;stroke:none;stroke-width:1;stroke-linecap:square;stroke-linejoin:miter;stroke-miterlimit:10;stroke-dasharray:none;stroke-dashoffset:0;stroke-opacity:1;color-rendering:auto;image-rendering:auto;shape-rendering:auto;text-rendering:auto"
           d="m 536.28923,269.39343 c -45.06291,0.76605 -83.90636,45.46104 -77.67187,90.25 4.43366,43.27375 48.56606,78.91194 91.98565,71.19033 40.07112,-5.093 73.22053,-43.85871 69.75458,-84.54384 -1.56025,-34.7021 -27.68444,-66.71481 -61.6723,-74.47881 -7.30072,-1.8931 -14.86515,-2.60984 -22.39606,-2.41768 z"
           id="path7132-5-3-8-4-4-7"
           inkscape:connector-curvature="0" />
        <path
           style="font-style:normal;font-weight:normal;font-size:medium;font-family:Dialog;color-interpolation:auto;fill:#000000;fill-opacity:1;stroke:none;stroke-width:1;stroke-linecap:square;stroke-linejoin:miter;stroke-miterlimit:10;stroke-dasharray:none;stroke-dashoffset:0;stroke-opacity:1;color-rendering:auto;image-rendering:auto;shape-rendering:auto;text-rendering:auto"
           d="m 613.35158,350.5405 -49.30381,0 q 0,-14.16315 -12.02531,-21.11117 l 24.71868,-42.75664 q 17.23635,10.42198 26.92335,27.45775 9.68709,17.03587 9.68709,36.41006 z"
           id="path7130-8-3-3-1-0-4"
           inkscape:connector-curvature="0" />
        <path
           style="font-style:normal;font-weight:normal;font-size:medium;font-family:Dialog;color-interpolation:auto;fill:#000000;fill-opacity:1;stroke:none;stroke-width:1;stroke-linecap:square;stroke-linejoin:miter;stroke-miterlimit:10;stroke-dasharray:none;stroke-dashoffset:0;stroke-opacity:1;color-rendering:auto;image-rendering:auto;shape-rendering:auto;text-rendering:auto"
           d="m 526.90287,329.42933 q -12.02521,6.94802 -12.02521,21.11117 l -49.30381,0 q 0,-19.37419 9.68699,-36.41006 9.6871,-17.03577 26.92335,-27.45775 l 24.71868,42.75664 z"
           id="path7128-9-3-98-1-23-6"
           inkscape:connector-curvature="0" />
        <path
           style="font-style:normal;font-weight:normal;font-size:medium;font-family:Dialog;color-interpolation:auto;fill:#000000;fill-opacity:1;stroke:none;stroke-width:1;stroke-linecap:square;stroke-linejoin:miter;stroke-miterlimit:10;stroke-dasharray:none;stroke-dashoffset:0;stroke-opacity:1;color-rendering:auto;image-rendering:auto;shape-rendering:auto;text-rendering:auto"
           d="m 539.30381,332.76974 q 7.34888,0 12.55928,5.21094 5.21094,5.21104 5.21094,12.55982 0,7.34878 -5.21094,12.55981 -5.2104,5.21094 -12.55928,5.21094 -7.34878,0 -12.55982,-5.21094 -5.21084,-5.21103 -5.21084,-12.55981 0,-7.34878 5.21084,-12.55982 5.21104,-5.21094 12.55982,-5.21094 z"
           id="path7126-0-1-17-2-3-7"
           inkscape:connector-curvature="0" />
        <path
           style="font-style:normal;font-weight:normal;font-size:medium;font-family:Dialog;color-interpolation:auto;fill:#000000;fill-opacity:1;stroke:none;stroke-width:1;stroke-linecap:square;stroke-linejoin:miter;stroke-miterlimit:10;stroke-dasharray:none;stroke-dashoffset:0;stroke-opacity:1;color-rendering:auto;image-rendering:auto;shape-rendering:auto;text-rendering:auto"
           d="m 576.34029,414.54195 q -16.43464,9.88748 -36.8776,9.88748 -20.04225,0 -36.87765,-9.88748 l 24.58513,-42.75674 q 5.21094,3.34041 12.29252,3.34041 7.08157,0 12.29257,-3.34041 l 24.58503,42.75674 z"
           id="path6198-0-6-4-6-2-4"
           inkscape:connector-curvature="0" />
      </g>
      <path
         d="m 2457.5732,973.90112 q -1.5625,-4.375 -2.5,-10.625 -0.7812,-6.40625 -1.0937,-12.96875 -4.2188,5.46875 -10,10.3125 -5.7813,4.84375 -12.9688,8.4375 -7.1875,3.59375 -15.7812,5.78125 -8.5938,2.1875 -18.5938,2.1875 -12.3437,0 -22.5,-3.59375 -10,-3.59375 -17.1875,-10 -7.0312,-6.5625 -10.9375,-15.3125 -3.9062,-8.75 -3.9062,-19.0625 0,-12.34375 5.3125,-22.1875 5.3125,-10 15.3125,-16.875 10,-7.03125 24.2187,-10.625 14.375,-3.75 32.1875,-3.75 l 34.6875,0 0,-19.21875 q 0,-18.125 -11.25,-28.4375 -11.0937,-10.46875 -32.5,-10.46875 -9.8437,0 -18.125,2.65625 -8.2812,2.65625 -14.375,7.34375 -5.9375,4.6875 -9.375,10.9375 -3.2812,6.09375 -3.2812,13.125 l -18.75,-0.15625 q 0,-9.53125 4.6875,-18.4375 4.6875,-8.90625 13.125,-15.78125 8.5937,-7.03125 20.4687,-11.25 12.0313,-4.21875 26.5625,-4.21875 13.4375,0 24.6875,3.4375 11.4063,3.4375 19.5313,10.3125 8.125,6.875 12.6562,17.1875 4.5313,10.3125 4.5313,24.0625 l 0,81.875 q 0,4.375 0.3125,9.0625 0.3125,4.6875 0.9375,9.0625 0.7812,4.375 1.7187,8.4375 0.9375,3.90625 2.1875,6.875 l 0,1.875 -20,0 z m -58.75,-13.4375 q 10.1563,0 18.75,-2.5 8.75,-2.65625 15.7813,-7.1875 7.0312,-4.53125 12.1875,-10.46875 5.1562,-6.09375 8.2812,-13.125 l 0,-37.1875 -32.0312,0 q -14.375,0 -25.7813,2.65625 -11.25,2.5 -19.0625,7.34375 -7.8125,4.84375 -12.0312,11.875 -4.0625,6.875 -4.0625,15.625 0,6.875 2.6562,12.96875 2.6563,5.9375 7.5,10.46875 5,4.375 12.0313,7.03125 7.0312,2.5 15.7812,2.5 z"
         style="font-style:normal;font-variant:normal;font-weight:300;font-stretch:normal;font-size:medium;line-height:125%;font-family:Roboto;-inkscape-font-specification:'Roboto, Light';text-align:start;letter-spacing:0px;word-spacing:0px;writing-mode:lr-tb;text-anchor:start;color-interpolation:auto;fill:#ffffff;fill-opacity:1;stroke:none;stroke-width:1px;stroke-linecap:butt;stroke-linejoin:miter;stroke-miterlimit:10;stroke-dasharray:none;stroke-dashoffset:0;stroke-opacity:1;color-rendering:auto;image-rendering:auto;shape-rendering:auto;text-rendering:auto"
         id="path4485"
         inkscape:connector-curvature="0" />
      <path
         d="m 2585.2295,961.24487 q 8.9062,0 17.0312,-2.5 8.2813,-2.65625 14.6875,-7.65625 6.4063,-5 10.4688,-12.34375 4.2187,-7.34375 4.8437,-17.03125 l 17.9688,0 q -0.625,12.03125 -6.0938,22.1875 -5.3125,10.15625 -14.2187,17.5 -8.75,7.34375 -20.3125,11.5625 -11.5625,4.0625 -24.375,4.0625 -17.8125,0 -31.25,-6.40625 -13.4375,-6.5625 -22.6563,-17.96875 -9.0625,-11.40625 -13.75,-26.71875 -4.5312,-15.46875 -4.5312,-33.28125 l 0,-6.5625 q 0,-17.8125 4.5312,-33.125 4.6875,-15.46875 13.75,-26.71875 9.0625,-11.40625 22.5,-17.96875 13.5938,-6.5625 31.25,-6.5625 13.5938,0 25.1563,4.21875 11.7187,4.21875 20.3125,12.03125 8.75,7.8125 13.9062,19.0625 5.1563,11.09375 5.7813,24.84375 l -17.9688,0 q -0.625,-10.3125 -4.5312,-18.4375 -3.75,-8.125 -10.1563,-13.90625 -6.25,-5.78125 -14.6875,-8.75 -8.2812,-3.125 -17.8125,-3.125 -14.5312,0 -24.6875,5.625 -10,5.625 -16.4062,15.15625 -6.4063,9.53125 -9.375,21.875 -2.8125,12.34375 -2.8125,25.78125 l 0,6.5625 q 0,13.59375 2.8125,26.09375 2.9687,12.34375 9.2187,21.875 6.4063,9.375 16.5625,15 10.3125,5.625 24.8438,5.625 z"
         style="font-style:normal;font-variant:normal;font-weight:300;font-stretch:normal;font-size:medium;line-height:125%;font-family:Roboto;-inkscape-font-specification:'Roboto, Light';text-align:start;letter-spacing:0px;word-spacing:0px;writing-mode:lr-tb;text-anchor:start;color-interpolation:auto;fill:#ffffff;fill-opacity:1;stroke:none;stroke-width:1px;stroke-linecap:butt;stroke-linejoin:miter;stroke-miterlimit:10;stroke-dasharray:none;stroke-dashoffset:0;stroke-opacity:1;color-rendering:auto;image-rendering:auto;shape-rendering:auto;text-rendering:auto"
         id="path4487"
         inkscape:connector-curvature="0" />
      <path
         d="m 2716.167,761.55737 0,43.28125 35,0 0,15.3125 -35,0 0,112.65625 q 0,8.90625 1.7187,14.375 1.875,5.3125 4.8438,8.4375 3.125,2.96875 7.0312,4.0625 4.0625,0.9375 8.4375,0.9375 4.2188,0 8.125,-0.46875 3.9063,-0.625 7.0313,-1.09375 l 0.7812,15.3125 q -3.4375,1.25 -9.0625,1.875 -5.4687,0.78125 -10.9375,0.78125 -7.9687,0 -14.8437,-2.1875 -6.7188,-2.03125 -11.5625,-7.1875 -4.8438,-5.15625 -7.6563,-13.59375 -2.6562,-8.59375 -2.6562,-21.25 l 0,-112.65625 -31.0938,0 0,-15.3125 31.0938,0 0,-43.28125 18.75,0 z"
         style="font-style:normal;font-variant:normal;font-weight:300;font-stretch:normal;font-size:medium;line-height:125%;font-family:Roboto;-inkscape-font-specification:'Roboto, Light';text-align:start;letter-spacing:0px;word-spacing:0px;writing-mode:lr-tb;text-anchor:start;color-interpolation:auto;fill:#ffffff;fill-opacity:1;stroke:none;stroke-width:1px;stroke-linecap:butt;stroke-linejoin:miter;stroke-miterlimit:10;stroke-dasharray:none;stroke-dashoffset:0;stroke-opacity:1;color-rendering:auto;image-rendering:auto;shape-rendering:auto;text-rendering:auto"
         id="path4489"
         inkscape:connector-curvature="0" />
      <path
         d="m 2811.167,973.90112 -18.75,0 0,-169.0625 18.75,0 0,169.0625 z m -22.0313,-217.96875 q 0,-5.3125 3.4375,-8.90625 3.4375,-3.75 9.375,-3.75 5.9375,0 9.375,3.75 3.5938,3.59375 3.5938,8.90625 0,5.3125 -3.5938,8.90625 -3.4375,3.59375 -9.375,3.59375 -5.9375,0 -9.375,-3.59375 -3.4375,-3.59375 -3.4375,-8.90625 z"
         style="font-style:normal;font-variant:normal;font-weight:300;font-stretch:normal;font-size:medium;line-height:125%;font-family:Roboto;-inkscape-font-specification:'Roboto, Light';text-align:start;letter-spacing:0px;word-spacing:0px;writing-mode:lr-tb;text-anchor:start;color-interpolation:auto;fill:#ffffff;fill-opacity:1;stroke:none;stroke-width:1px;stroke-linecap:butt;stroke-linejoin:miter;stroke-miterlimit:10;stroke-dasharray:none;stroke-dashoffset:0;stroke-opacity:1;color-rendering:auto;image-rendering:auto;shape-rendering:auto;text-rendering:auto"
         id="path4491"
         inkscape:connector-curvature="0" />
      <path
         d="m 2914.1357,948.11987 51.4063,-143.28125 19.2187,0 -63.125,169.0625 -15.1562,0 -63.4375,-169.0625 19.2187,0 51.875,143.28125 z"
         style="font-style:normal;font-variant:normal;font-weight:300;font-stretch:normal;font-size:medium;line-height:125%;font-family:Roboto;-inkscape-font-specification:'Roboto, Light';text-align:start;letter-spacing:0px;word-spacing:0px;writing-mode:lr-tb;text-anchor:start;color-interpolation:auto;fill:#ffffff;fill-opacity:1;stroke:none;stroke-width:1px;stroke-linecap:butt;stroke-linejoin:miter;stroke-miterlimit:10;stroke-dasharray:none;stroke-dashoffset:0;stroke-opacity:1;color-rendering:auto;image-rendering:auto;shape-rendering:auto;text-rendering:auto"
         id="path4493"
         inkscape:connector-curvature="0" />
      <path
         d="m 3078.8232,977.02612 q -16.5625,0 -30.4687,-6.09375 -13.9063,-6.25 -24.0625,-17.1875 -10,-11.09375 -15.625,-26.25 -5.625,-15.15625 -5.625,-33.28125 l 0,-6.71875 q 0,-19.53125 5.7812,-35.3125 5.9375,-15.9375 15.9375,-27.03125 10,-11.25 22.9688,-17.34375 13.125,-6.09375 27.6562,-6.09375 16.0938,0 28.5938,5.78125 12.5,5.78125 20.9375,16.09375 8.5937,10.3125 12.9687,24.53125 4.375,14.21875 4.375,31.09375 l 0,11.40625 -120.625,0 0,3.59375 q 0,13.90625 4.2188,26.25 4.2187,12.1875 11.875,21.25 7.6562,9.0625 18.2812,14.375 10.625,5.15625 23.5938,5.15625 15,0 26.4062,-5.46875 11.5625,-5.46875 20.9375,-17.5 l 11.7188,8.90625 q -4.2188,6.09375 -9.8438,11.5625 -5.4687,5.46875 -12.8125,9.53125 -7.3437,4.0625 -16.5625,6.40625 -9.2187,2.34375 -20.625,2.34375 z m -3.4375,-159.375 q -10.625,0 -19.6875,4.0625 -9.0625,4.0625 -16.0937,11.5625 -6.875,7.5 -11.4063,18.125 -4.375,10.46875 -5.9375,23.28125 l 101.4063,0 0,-2.03125 q -0.3125,-10.625 -3.4375,-20.46875 -3.125,-10 -9.2188,-17.65625 -5.9375,-7.65625 -14.8437,-12.1875 -8.9063,-4.6875 -20.7813,-4.6875 z"
         style="font-style:normal;font-variant:normal;font-weight:300;font-stretch:normal;font-size:medium;line-height:125%;font-family:Roboto;-inkscape-font-specification:'Roboto, Light';text-align:start;letter-spacing:0px;word-spacing:0px;writing-mode:lr-tb;text-anchor:start;color-interpolation:auto;fill:#ffffff;fill-opacity:1;stroke:none;stroke-width:1px;stroke-linecap:butt;stroke-linejoin:miter;stroke-miterlimit:10;stroke-dasharray:none;stroke-dashoffset:0;stroke-opacity:1;color-rendering:auto;image-rendering:auto;shape-rendering:auto;text-rendering:auto"
         id="path4495"
         inkscape:connector-curvature="0" />
    </g>
  </g>
</svg>
