<?xml version="1.0" standalone="no"?>
<!DOCTYPE svg PUBLIC "-//W3C//DTD SVG 20010904//EN"
 "http://www.w3.org/TR/2001/REC-SVG-20010904/DTD/svg10.dtd">
<svg version="1.0" xmlns="http://www.w3.org/2000/svg"
 width="700.000000pt" height="700.000000pt" viewBox="0 0 700.000000 700.000000"
 preserveAspectRatio="xMidYMid meet">
<metadata>
Created by potrace 1.11, written by Peter Selinger 2001-2013
</metadata>
<g transform="translate(0.000000,700.000000) scale(0.100000,-0.100000)"
fill="#000000" stroke="none">
<path d="M1935 5942 c-420 -280 -750 -638 -984 -1068 -157 -289 -269 -617
-315 -924 -20 -130 -36 -305 -36 -387 l0 -63 970 0 c917 0 970 1 970 18 0 55
23 207 41 271 56 201 191 382 371 499 36 23 56 42 53 50 -8 23 -947 1646 -959
1659 -8 9 -36 -5 -111 -55z"/>
<path d="M4932 5942 c-150 -255 -933 -1614 -930 -1616 2 -2 31 -22 66 -45 174
-117 298 -278 354 -459 24 -78 48 -218 48 -279 l0 -43 972 0 971 0 -6 148
c-29 690 -342 1396 -842 1895 -179 179 -379 338 -581 460 -7 4 -27 -19 -52
-61z"/>
<path d="M3405 4194 c-265 -43 -489 -231 -571 -480 -26 -79 -29 -103 -29 -214
0 -142 21 -229 80 -335 215 -383 712 -485 1047 -214 235 189 325 488 232 769
-70 210 -267 398 -479 454 -62 17 -227 28 -280 20z"/>
<path d="M2987 2603 c-19 -32 -236 -409 -482 -837 l-448 -779 24 -18 c75 -57
398 -197 579 -252 407 -124 884 -155 1319 -87 312 49 595 144 875 294 103 56
107 58 93 79 -7 12 -224 389 -482 837 -257 448 -470 817 -472 820 -3 3 -28 -8
-56 -24 -139 -77 -332 -112 -527 -95 -122 11 -195 30 -298 79 -46 22 -85 40
-87 40 -2 0 -19 -26 -38 -57z"/>
</g>
</svg>
